<svg id="d9c9c0fa-62fe-4196-a53e-a76844515182" xmlns="http://www.w3.org/2000/svg" viewBox="0 0 128 40"><path d="M124,40H4a4,4,0,0,1-4-4V4A4,4,0,0,1,4,0H124a4,4,0,0,1,4,4V36A4,4,0,0,1,124,40Z" transform="translate(0)"/><path d="M27,19.8a5.8,5.8,0,0,1,2.7-4.7,6.23,6.23,0,0,0-4.5-2.5c-1.9-.2-3.8,1.1-4.7,1.1s-2.5-1.1-4.1-1.1a5.94,5.94,0,0,0-5.1,3.1c-2.2,3.8-.6,9.4,1.5,12.5,1.1,1.5,2.3,3.2,3.9,3.1s2.2-1,4.1-1,2.4,1,4.1,1,2.8-1.5,3.8-3a11.46,11.46,0,0,0,1.7-3.5A5.53,5.53,0,0,1,27,19.8Zm-3.1-9.2a6.2,6.2,0,0,0,1.3-4,5.36,5.36,0,0,0-3.6,1.9,5.06,5.06,0,0,0-1.3,3.8A4.75,4.75,0,0,0,23.9,10.6ZM49.8,31.1H47.6l-1.2-3.8H42.2l-1.1,3.8H39l4.2-12.9h2.6ZM46,25.7l-1.1-3.4c-.1-.3-.3-1.2-.7-2.4-.1.5-.3,1.4-.6,2.4l-1.1,3.4Zm14.5.7a5.32,5.32,0,0,1-1.3,3.8,3.85,3.85,0,0,1-2.9,1.2,2.72,2.72,0,0,1-2.6-1.3V35H51.6V25c0-1,0-2-.1-3.1h1.8l.1,1.5a3.45,3.45,0,0,1,3.1-1.7A3.23,3.23,0,0,1,59.2,23,4.24,4.24,0,0,1,60.5,26.4Zm-2.1,0a3.59,3.59,0,0,0-.6-2.2,2,2,0,0,0-1.8-.9,2.39,2.39,0,0,0-1.4.5,2.22,2.22,0,0,0-.8,1.3,1.76,1.76,0,0,0-.1.6v1.6a2.52,2.52,0,0,0,.6,1.7,2,2,0,0,0,1.6.7,2,2,0,0,0,1.8-.9A3.61,3.61,0,0,0,58.4,26.4Zm12.8,0a5.32,5.32,0,0,1-1.3,3.8A3.85,3.85,0,0,1,67,31.4a2.72,2.72,0,0,1-2.6-1.3V35H62.3V25c0-1,0-2-.1-3.1H64l.1,1.5a3.45,3.45,0,0,1,3.1-1.7A3.23,3.23,0,0,1,69.9,23,4.24,4.24,0,0,1,71.2,26.4Zm-2.1,0a3.59,3.59,0,0,0-.6-2.2,2,2,0,0,0-1.8-.9,2.39,2.39,0,0,0-1.4.5,2.22,2.22,0,0,0-.8,1.3,1.76,1.76,0,0,0-.1.6v1.6A2.52,2.52,0,0,0,65,29a2,2,0,0,0,1.6.7,2,2,0,0,0,1.8-.9A3.61,3.61,0,0,0,69.1,26.4Zm14.1,1.1a3.69,3.69,0,0,1-1.1,2.7,4.76,4.76,0,0,1-3.5,1.1,6.18,6.18,0,0,1-3.3-.8l.5-1.7a6.11,6.11,0,0,0,3,.8,3,3,0,0,0,1.8-.5,1.82,1.82,0,0,0,.6-1.4,1.9,1.9,0,0,0-.5-1.3,5,5,0,0,0-1.8-1c-2.3-.8-3.4-2.1-3.4-3.7a3.22,3.22,0,0,1,1.2-2.6,4.55,4.55,0,0,1,3.2-1,6.24,6.24,0,0,1,2.9.6l-.5,1.7a4.87,4.87,0,0,0-2.5-.6,2.86,2.86,0,0,0-1.7.5,1.66,1.66,0,0,0-.5,1.2,1.76,1.76,0,0,0,.6,1.3,7.76,7.76,0,0,0,1.9,1,6.75,6.75,0,0,1,2.5,1.6A4,4,0,0,1,83.2,27.5ZM90,23.4H87.7v4.5c0,1.1.4,1.7,1.2,1.7a2.22,2.22,0,0,0,.9-.1l.1,1.6a3.66,3.66,0,0,1-1.6.2,2.35,2.35,0,0,1-1.9-.7,3.4,3.4,0,0,1-.7-2.5V23.4H84.3V21.8h1.4V20.1l2-.6v2.3H90Zm10.3,3a5.13,5.13,0,0,1-1.2,3.5,4.6,4.6,0,0,1-3.4,1.4,4.22,4.22,0,0,1-3.3-1.4,4.87,4.87,0,0,1-1.2-3.4A4.75,4.75,0,0,1,92.5,23a4.44,4.44,0,0,1,3.4-1.4A4.22,4.22,0,0,1,99.2,23a5.33,5.33,0,0,1,1.1,3.4Zm-2.2.1a3.8,3.8,0,0,0-.6-2.2,2.19,2.19,0,0,0-3.8,0,4,4,0,0,0-.6,2.2,3.8,3.8,0,0,0,.6,2.2,2.14,2.14,0,0,0,1.9,1.1,2.26,2.26,0,0,0,1.9-1.1A4,4,0,0,0,98.1,26.5Zm8.9-2.9c-.2,0-.4-.1-.7-.1a2.14,2.14,0,0,0-1.7.8,3.45,3.45,0,0,0-.5,1.8V31H102V24.6a26.22,26.22,0,0,0-.1-2.9h1.8l.1,1.8h.1a4,4,0,0,1,1-1.5,3,3,0,0,1,1.5-.5h.5v2.1Zm9.2,2.4a2.22,2.22,0,0,1-.1.9h-6.2a2.58,2.58,0,0,0,.9,2.1,3.22,3.22,0,0,0,2,.7,6.57,6.57,0,0,0,2.5-.4l.3,1.4a7.45,7.45,0,0,1-3.1.6,4.38,4.38,0,0,1-3.4-1.3,4.7,4.7,0,0,1-1.2-3.4,5.62,5.62,0,0,1,1.1-3.5,4,4,0,0,1,3.3-1.5,3.33,3.33,0,0,1,3,1.5A4.2,4.2,0,0,1,116.2,26Zm-1.9-.5a2.93,2.93,0,0,0-.4-1.6,1.8,1.8,0,0,0-1.6-.9,1.94,1.94,0,0,0-1.6.8,3.82,3.82,0,0,0-.6,1.6h4.2ZM45.4,10.3a3.25,3.25,0,0,1-1,2.6,4.14,4.14,0,0,1-2.7.8,6.62,6.62,0,0,1-1.5-.1V7.4A9.72,9.72,0,0,1,42,7.3a3.73,3.73,0,0,1,2.5.7A3.24,3.24,0,0,1,45.4,10.3Zm-1.1,0a2.35,2.35,0,0,0-.6-1.7A2.35,2.35,0,0,0,42,8a2,2,0,0,0-.8.1v4.7h.7a2.44,2.44,0,0,0,1.8-.6A2.71,2.71,0,0,0,44.3,10.3Zm6.7,1a2.35,2.35,0,0,1-.6,1.7,2.06,2.06,0,0,1-1.7.7,1.86,1.86,0,0,1-1.6-.7,2.35,2.35,0,0,1-.6-1.7,2.35,2.35,0,0,1,.6-1.7,2.06,2.06,0,0,1,1.7-.7,1.86,1.86,0,0,1,1.6.7A2.35,2.35,0,0,1,51,11.3Zm-1,0a2,2,0,0,0-.3-1.1.87.87,0,0,0-.9-.5,1.05,1.05,0,0,0-.9.5,2.17,2.17,0,0,0,0,2.2.87.87,0,0,0,.9.5,1,1,0,0,0,.9-.6A1.49,1.49,0,0,0,50,11.3ZM58.7,9l-1.4,4.6h-.9l-.6-2a8.33,8.33,0,0,1-.4-1.5,8.33,8.33,0,0,1-.4,1.5l-.6,2h-.9L52,9h1l.5,2.2.3,1.5c.1-.4.2-.9.4-1.5L54.8,9h.8l.6,2.1a8.33,8.33,0,0,1,.4,1.5l.3-1.5L57.5,9Zm5.2,4.6h-1V11q0-1.2-.9-1.2a.91.91,0,0,0-.7.3,1.14,1.14,0,0,0-.3.8v2.7H60V9h.9v.7a2.65,2.65,0,0,1,.5-.6,1.61,1.61,0,0,1,.9-.3,1.5,1.5,0,0,1,1.1.4,1.72,1.72,0,0,1,.5,1.5Zm2.8,0h-1V6.9h1Zm6-2.3a2.35,2.35,0,0,1-.6,1.7,2.06,2.06,0,0,1-1.7.7,1.86,1.86,0,0,1-1.6-.7,2.35,2.35,0,0,1-.6-1.7,2.35,2.35,0,0,1,.6-1.7,2.41,2.41,0,0,1,1.7-.7,1.86,1.86,0,0,1,1.6.7A2.35,2.35,0,0,1,72.7,11.3Zm-1,0a2,2,0,0,0-.3-1.1.87.87,0,0,0-.9-.5,1.05,1.05,0,0,0-.9.5,2.17,2.17,0,0,0,0,2.2.87.87,0,0,0,.9.5,1,1,0,0,0,.9-.6A1.49,1.49,0,0,0,71.7,11.3Zm5.9,2.3h-.9l-.1-.5a1.61,1.61,0,0,1-1.3.6,1.16,1.16,0,0,1-1-.4,1.8,1.8,0,0,1-.4-.9,1.36,1.36,0,0,1,.7-1.3,3.74,3.74,0,0,1,2-.4v-.1a.8.8,0,0,0-.9-.9,2.38,2.38,0,0,0-1.2.3l-.2-.7a2.54,2.54,0,0,1,1.6-.4c1.2,0,1.8.6,1.8,1.9v1.7A4.91,4.91,0,0,0,77.6,13.6Zm-1-1.6v-.7c-1.1,0-1.7.3-1.7.9a.68.68,0,0,0,.7.7,1.42,1.42,0,0,0,.6-.2,1,1,0,0,0,.4-.5Zm6.8,1.6h-.9v-.7a1.48,1.48,0,0,1-1.5.8,1.82,1.82,0,0,1-1.4-.6,2.31,2.31,0,0,1-.5-1.7,2.79,2.79,0,0,1,.6-1.8A2,2,0,0,1,81.1,9a1.49,1.49,0,0,1,1.3.6V7h1Zm-1-1.9V10.6A2.09,2.09,0,0,0,82,10a.84.84,0,0,0-.7-.2,1.05,1.05,0,0,0-.9.5,2.13,2.13,0,0,0-.3,1.2,1.8,1.8,0,0,0,.3,1.1,1.05,1.05,0,0,0,.9.5.91.91,0,0,0,.8-.4A2.24,2.24,0,0,0,82.4,11.7Zm9.7-.4a2.35,2.35,0,0,1-.6,1.7,2.06,2.06,0,0,1-1.7.7,1.86,1.86,0,0,1-1.6-.7,2.35,2.35,0,0,1-.6-1.7,2.35,2.35,0,0,1,.6-1.7,2.06,2.06,0,0,1,1.7-.7,1.86,1.86,0,0,1,1.6.7A2.35,2.35,0,0,1,92.1,11.3Zm-1.1,0a2,2,0,0,0-.3-1.1.87.87,0,0,0-.9-.5,1.05,1.05,0,0,0-.9.5,2.17,2.17,0,0,0,0,2.2.87.87,0,0,0,.9.5,1,1,0,0,0,.9-.6A1.49,1.49,0,0,0,91,11.3Zm6.6,2.3h-1V11q0-1.2-.9-1.2a.91.91,0,0,0-.7.3,1.14,1.14,0,0,0-.3.8v2.7h-1V9h.9v.7a2.65,2.65,0,0,1,.5-.6,1.61,1.61,0,0,1,.9-.3,1.5,1.5,0,0,1,1.1.4,1.72,1.72,0,0,1,.5,1.5Zm6.8-3.8h-1.1V12c0,.6.2.8.6.8h.5v.8a2,2,0,0,1-.8.1,1,1,0,0,1-.9-.4,1.92,1.92,0,0,1-.3-1.2V9.8h-.7V9h.7V8.2l1-.3V9h1.1v.8Zm5.4,3.8h-1V11q0-1.2-.9-1.2a1,1,0,0,0-1,.7v3.1h-1V6.9h1V9.7a1.6,1.6,0,0,1,1.4-.8,1.16,1.16,0,0,1,1,.4,2.25,2.25,0,0,1,.5,1.5Zm5.5-2.5v.5h-3a1.33,1.33,0,0,0,.4,1,1.69,1.69,0,0,0,1,.3,3.73,3.73,0,0,0,1.2-.2l.2.7a3.34,3.34,0,0,1-1.5.3,2.35,2.35,0,0,1-1.7-.6,2.35,2.35,0,0,1-.6-1.7,2.35,2.35,0,0,1,.6-1.7,1.86,1.86,0,0,1,1.6-.7,1.58,1.58,0,0,1,1.5.7A2.65,2.65,0,0,1,115.3,11.1Zm-.9-.3a1.88,1.88,0,0,0-.2-.8.81.81,0,0,0-.8-.4.91.91,0,0,0-.8.4,1.14,1.14,0,0,0-.3.8Z" transform="translate(0)" style="fill:#fff"/></svg>