<svg class="SVGInline-svg SignupAsASitter__StyledIcon-sc-5t7qmo-2-svg cnaHpk-svg SignupAsASitterIcon__Icon-sc-1khg0o6-0-svg caqzOL-svg" version="1.1" id="Capa_1" xmlns="http://www.w3.org/2000/svg" xmlns:xlink="http://www.w3.org/1999/xlink" x="0" y="0" viewBox="0 0 2122 2122" xml:space="preserve">
  <style>
    .st1{clip-path:url(#SVGID_2_)}.st1,.st2{fill:#f1f2f2}.st3{fill:#83b96f}.st4,.st5,.st6{fill:none;stroke:#6fa867;stroke-width:3.6194;stroke-linecap:round;stroke-linejoin:round;stroke-miterlimit:10}.st5,.st6{stroke-width:6.8641}.st6{stroke-width:4.989}.st8{fill:#898481}.st9{fill:#6b6a69}.st10{fill:#b2b2ab}.st14{fill:#5faee0}.st15{fill:none;stroke:#e6e7e8;stroke-width:3.504;stroke-linecap:round;stroke-linejoin:round;stroke-miterlimit:10}.st16{fill:#d1d3d4}.st18{fill:#ebbd68}.st19{fill:#f1b59e}.st20{fill:#589cc2}.st21{fill:#4b2a0f}.st22{fill:#e6e7e8}.st23{fill:#be1e2d}.st24{fill:none;stroke:#f1f2f2;stroke-width:3.9898;stroke-linecap:round;stroke-linejoin:round;stroke-miterlimit:10}.st26{fill:#3c2415}.st27{fill:#603913}.st31{fill:#fff}.st33{fill:#e49d7c}.st35{fill:#e7e3de}.st37{clip-path:url(#SVGID_6_);fill:#fff}
  </style>
  <defs>
    <circle id="SVGID_1_" cx="1077.38" cy="1133.51" r="917.97"/>
  </defs>
  <clipPath id="SVGID_2_">
    <use xlink:href="#SVGID_1_" overflow="visible"/>
  </clipPath>
  <circle cx="1078.38" cy="1133.51" r="917.97" clip-path="url(#SVGID_2_)" fill="#c5e8f1"/>
  <path class="st1" d="M436.9 811.91c19.28-60.7 58.8-70.34 81.14-53.61 7.52-33.21-2.71-53.92 30.66-88.05 21.12-21.59 48.18-26.98 79.02-15.42 32.03 12.01 41.94 39.8 41.44 67.46 16.38-11.57 67.17-1.63 72.28 52.04 35.66-12.53 113.71-31.8 139.74 39.51l-444.28-1.93zM-30.56 1028.7c-13.56-8.84 4.23-14.64 15.06-9.61 2.61-10.83 15.28-15.18 27.6-9.04 6.7-15.73 14.92-19.57 36.31-20.13.94-8.79 6.95-19.59 16.06-25.26 12.67-7.9 27.24-2.42 40.09 2.54 2.21-23.48 17.29-44.45 48.86-50.71 29.39-5.82 56.04.53 67.73 22.99 3.18 6.1 3.46 19.6-2.97 27.52 14.24-1.24 27.68 7.91 13.35 20.36 19.27-1.51 44.96 25.63 17.29 41.34H-30.56zM467.99 353.8c-12.05-7.85 3.76-13 13.38-8.53 2.32-9.62 13.57-13.48 24.52-8.03 5.95-13.97 13.25-17.38 32.25-17.88.83-7.81 6.17-17.4 14.26-22.44 11.25-7.01 24.19-2.15 35.61 2.26 1.96-20.86 15.36-39.49 43.4-45.04 26.11-5.17 49.78.47 60.17 20.42 2.82 5.42 3.08 17.41-2.64 24.44 12.65-1.1 24.59 7.03 11.86 18.08 17.12-1.34 39.94 22.77 15.36 36.72H467.99z"/>
  <path class="st2" d="M1630.55 986.88c-13.56-8.84 4.23-14.64 15.06-9.61 2.61-10.83 15.28-15.18 27.6-9.04 6.7-15.73 14.92-19.57 36.31-20.13.94-8.79 6.95-19.59 16.06-25.26 12.67-7.9 27.24-2.42 40.09 2.54 2.21-23.48 17.29-44.45 48.86-50.71 29.39-5.82 56.04.53 67.73 22.99 3.18 6.1 3.46 19.6-2.97 27.52 14.24-1.24 27.68 7.91 13.35 20.36 19.27-1.51 44.96 25.63 17.29 41.34h-279.38zM1201.26 647.09c-15.04-32.36 8.89-52.07 35.61-45.74-6.32-18.29-1.75-47.43 33.53-40.27-.53-27.75-2.05-59.39 29.23-73.71 27.12-12.41 56.1 11.68 59.86 38.5 29.25-14.11 49.73 8.43 47.88 35.18 21.56-13.15 64.57-17 94.02.22 19.14 11.18 34.47 20.16 40.1 58.38 24.3-11.77 64.73 1.42 62.39 27.45h-402.62z"/>
  <path class="st2" d="M917.56 645.68c14.08-44.32 42.92-51.36 59.22-39.15 5.51-24.23-1.98-39.36 22.39-64.27 15.42-15.76 35.18-19.68 57.69-11.24 23.39 8.77 30.62 29.05 30.25 49.25 11.96-8.45 49.04-1.2 52.77 37.97 26.02-9.13 83-23.2 101.99 28.85l-324.31-1.41z"/>
  <path class="st3" d="M1624.69 1413.7c-29.16-4.08-22.32-57.59 11.85-48.31-17.48-9.99-11.49-32.35 11.65-27.23-11.96-11.31-21.56-33.46-8.79-46.62 11.55-11.87 33.12-4.17 41.41 6.13-6.33-19.58 5.64-32.91 24.39-21.34 4.14-17 4.87-45.29 29.42-23.76 2.24-16.88 9.24-35.14 29.91-35.68 19.4-.52 30.15 18.04 31.04 40.4 12.26-12.98 41.79-.69 30.08 21.93 24.19 1.54 28.82 23.2 5.74 36.37 27.93-1.25 49.02 30.26 14.48 49.53 14.28-.92 30.56 7.68 29.33 29.61-.72 12.72-13.99 24.67-33.52 26.05 10.25 5.37 11.56 13.59 11.51 21.33-.14 19.57-9.75 37.83-39.12 32.28l-189.38-60.69z"/>
  <path class="st4" d="M1655.51 1330.12c-10.82-13.16-3.59-27.53 13.54-20.77M1697.02 1296.21c-4.45-5.42 3.93-11.31 8.87-4.69 1.8-10.55 11.86-6.11 10.52 3.51M1742.14 1250.05c2.64-12.42 10.6-26.01 24.94-25.79M1833.37 1290.36c6.12 4.21 3.7 13.91-.4 18.9M1855.73 1335.55c2.96 8.54 2.32 16.76-6.22 22.23M1824.38 1389.13c2.8-10.1 25.5-4.63 20.61 8.6 5.55-7.83 20.53 13.58.17 15.75M1775.3 1313.81c-6.19-5.71 9.58-13.28 10.75-1.04.51-5.24 6.28-6.79 10.68-4.75 6.72 3.11 3.62 13.74-1.06 17.9M1757.01 1270.79c-3.93-1.29.98-7.81 4.31-8.46 4.39-.85 6.84 3.82 7.42 8.3M1688.49 1360.96c-2.56-1.23-1.76-6.4-.48-9.17 3.43.65 6.09 2.48 8.31 4.69.66-2.75.75-7.84 4.14-8.09 3.31-.25 5.09 4.42 5.71 6.92 1.18-3.54 3.27-6.43 7.21-5.5 7.24 1.71 4.68 11.02 3.04 15.72M1760.77 1397.39c-6.49-6.46.91-15.01 5.77-3.05.71-8.34 16.51-5.2 8.35 6.26M1615.2 1386.03c.12-9.12 11.67-14.23 19.76-13.17M1839.92 1450.29c10.41-7.76-.55-20.39-6.41-10.82.24-7.61-3.74-8.52-9.84-6.03M1779.49 1364.44c-1.36-4.96 4.19-6.62 5.64-1.38 1.09-5.61 11.59-2.83 8.99 4.31M1682.97 1406.76c-5.02-4.68 4.36-7.39 8.39-2.14 1.94-9.8 19.71-4.01 12.38 6.17"/>
  <path class="st3" d="M1601.21 1395.87c28.25-4.99 30.12-65.58-12.87-58.14 31.11-21.17 26.54-46.14-9.78-55.65 33.69-1.85 57.57-35.91 49.42-64.89-7.71-27.47-47.72-29.92-76.64-24.46 27.25-12.92 7.02-47.84-18.48-39.83 13.12-33.1 33.3-97.26-28.6-101.29-30.84-2.01-56.4 28.26-62.83 54.81-4.21-12.79-24.57-29-42.94-13.75-9.56 7.94-8.79 28.76-5.2 39.99-22.07-9.57-41.11-3.73-49.13 12.14-11.62 23 2.2 29.91 11.87 47.16-42.01-7.45-49.54 35.57-20.26 58.04-37.4-8.71-51.82 25.63-42.4 56.99-25.47-18.13-72.8 16.05-57.59 52.29l365.43 36.59z"/>
  <path class="st5" d="M1528.45 1118.44c10.7-22.07 2.89-47.89-23.4-48.67M1459.33 1142.14c4.93-17.29-11.67-17.86-20.89-10.78-4.28-17.54-24.98 1.69-12.16 11.41M1615.68 1230.31c6.46-12-13.68-24.45-23.63-25.41M1592.72 1260.98c10.84-4.15 5.59-17.78-5.03-11.56.85-3.93-4.17-10.42-8.14-11.19-6.31-1.21-10.86 7.68-12.07 13.43M1494.91 1212.98c6.03-.34 5.28-8.64 1.2-11.17-5.07-3.15-11.15 1.22-15.49 3.4 2.7-11.04-12.19-15.95-13.98-3.48-3.82-3.72-10.33-11.44-16.43-10.54-7.07 1.03-5.58 10.69-3.45 16.45M1384.75 1230.75c-.3-12.29-16.57-15.82-16.59-2.21-3.25-2.94-7.92-8.24-12.92-7.61-8.86 1.13-6.54 13.12-1.69 18.22M1523.05 1303.22c3.95 1.3 6.65-4.74 2.91-7.38-2.78-1.97-8.36.37-11.18 1.16-1.26-5.57-5.4-18.03-13.28-16.89-4.5.66-5.06 6.73-6.99 10.15-5-14.62-22.17-5.25-11.78 7.88M1302.28 1291.07c-2.33-8.21-1.22-21.63 6.85-26.53M1282.63 1314.77c-9.81-3.19-20.06 3.63-25.76 11.55M1597.28 1309.61c2.24-8.39-10.04-16.97-17-18.46M1408.02 1317.37c1.72-1.12 8.89-7 6.89-11.07-2.46-5-12.19-1.35-15.23 1.31-.56-9.16-11.03-11.6-13.12-1.84-1.74-3.01-6.19-10.15-10.47-9.94-7.21.34-6.43 13.46-6.01 18.79M1535.9 1373.62c15.67-3.41 5.78-19.19-9.34-9.06-3.55-15.28-22.28-9.65-16.23 5.71"/>
  <path class="st3" d="M348.19 1486.87c-32.8 13.39-58.05-46.39-16.91-57.4-24.22.19-31.52-26.68-4.36-35.36-19.27-4.51-42.65-21.75-37.33-43.16 4.8-19.32 31.9-24.37 46.75-18.67-18.43-16.53-14.06-37.63 12.44-36.95-5.98-20.18-22.33-50.03 16.22-42.48-7.87-18.91-11.65-42.13 9.51-55.2 19.86-12.27 42.27.52 56.72 23.23 4.89-20.92 43.03-26 44.54 4.6 26.08-13.03 43.99 6.68 27.97 34.34 28.27-18.2 69.27 1.81 45.02 42.73 14.28-9.6 36.42-10.5 48.4 13.05 6.94 13.65.37 34.11-19.09 47.35 13.91-.62 20.24 7.14 24.87 15.22 11.69 20.42 12.74 45.23-21.15 57.22l-233.6 51.48z"/>
  <path class="st6" d="M329.66 1381.32c-19.21-7.14-20.38-26.45 1.51-29.78M352.31 1320.95c-7.9-2.94-2.75-14.15 6.4-10.24-4.51-12.07 8.63-13.53 13.06-2.71M371.3 1245.67c-4.77-14.51-4.71-33.47 10.33-41.89M490.54 1232.39c8.91.67 12.27 12.23 11.01 19.89M541.11 1265.84c8.25 7.09 12.55 16.03 6.99 26.89M540.93 1340.51c-3.2-12.19 23.71-20.24 26.63-3.53 1.03-11.49 29.55 1.7 9.7 16.28M444.35 1291.89c-9.9-2.2 1.91-19.61 10.53-7.57-2.63-5.75 2.41-10.86 8.22-11.4 8.88-.83 12.09 12.09 9.73 19.24M399.31 1258.23c-4.88 1.05-3.72-8.7-.63-11.4 4.05-3.54 9.42-.16 12.73 4.15M382.61 1393.43c-3.41.26-5.7-5.58-6.05-9.25 3.96-1.4 7.84-1.1 11.49-.14-.98-3.27-3.97-8.61-.59-10.93 3.29-2.25 7.97 1.52 10.14 3.75-.92-4.4-.51-8.67 4.15-10.08 8.56-2.59 11.53 8.63 12.68 14.51M479.8 1387.59c-10.66-2.79-8.15-16.15 4.14-6.67-4.31-9.1 14.02-15.39 12.47 1.46M321.58 1463.84c-5.39-9.56 3.52-21.85 12.58-25.64M594.09 1394.71c6.13-14.37-12.92-20.87-13.2-7.37-4.37-8.06-9.05-6.59-13.89-.32M479.33 1342c-4.41-4.33.35-9.42 5.03-4.86-2.26-6.49 10.33-9.95 11.95-.94M404.59 1444.39c-8.06-1.83.05-10.31 7.43-7.3-3.9-11.36 18.07-16.09 16.6-1.08"/>
  <path d="M1944.38 1620.44c-.45 19.38-12.05 34.77-24.41 48.69-36.13 40.64-101.68 49.27-153.35 61.4-26.02 6.14-48.19 20.6-71.84 31.61-26.69 12.54-55.4 22.02-84.58 28-57.6 11.93-117.37 8.79-173.74-6.79-1.77-.46-3.56-.96-5.33-1.47-57.39-16.64-111.12-35.82-167.44-8.68-6.33 3.05-12.59 6.39-18.87 9.74-23.18 13.04-48.41 22.13-74.64 27.7-75.35 16.18-159.08 3.96-226.91-23.79-55.86-22.88-124.47-28.51-184.85-16.8-39.89 7.77-76.11 21.52-117.32 24.61-44.91 3.34-90.42 1.93-134.66-5.68-35.36-6.09-67.49-15.68-93.97-37.19-26.8-21.83-54.5-39.83-88.53-52.72-32.69-12.28-69.11-22.53-93.37-45.91-1.28-1.37-2.49-2.69-3.65-4.06-17.85-21.16-19.99-42.67-12.38-63.74 7.76-21.55 25.88-42.61 47.6-62.2 157.08-141.47 395.02-182.21 604.97-197.64 71.09-5.22 142.85-7.25 214.18-7.25 44.15 0 87.78 1.52 130.56 4.31h.2c1.99.15 3.96.25 5.93.41 315.71 21.66 584.12 114.01 672.06 197.12 3.51 3.35 6.6 6.9 9.69 10.4 1.76 2.04 3.61 4.11 5.27 6.15 17.66 21.53 40.08 53.59 39.38 83.78z" fill="#9dbf5f"/>
  <path class="st8" d="M620.37 1585.29s-.84.2-2.41.57c-.78.19-1.75.42-2.89.69-.57.14-1.18.28-1.83.44-.79.16-1.63.32-2.51.5-1.77.34-3.73.72-5.88 1.13-2.04.27-4.22.57-6.57.89-4.69.55-9.98.96-15.71 1.03-5.74.13-11.93-.17-18.4-.72-6.46-.73-13.22-1.65-20.06-3.24-6.86-1.47-13.8-3.52-20.68-5.97-6.91-2.39-13.66-5.47-20.25-8.79-6.58-3.35-12.83-7.26-18.78-11.39-5.92-4.17-11.38-8.77-16.39-13.49-4.94-4.8-9.36-9.79-13.17-14.81-3.72-5.09-7-10.07-9.46-15-2.58-4.83-4.41-9.54-5.85-13.74-1.37-4.23-2.37-7.96-2.89-11.09-.67-3.1-.89-5.59-1.07-7.27-.19-1.68-.29-2.57-.29-2.57-.22-1.99 1.22-3.78 3.21-3.99 1.82-.2 3.48.99 3.91 2.72l.08.3s.2.8.57 2.29c.37 1.5.85 3.7 1.83 6.39.84 2.72 2.18 5.93 3.88 9.5 1.77 3.53 3.92 7.43 6.76 11.36 2.71 4.01 6.18 7.98 10 11.98 3.91 3.92 8.35 7.74 13.18 11.33 4.91 3.5 10.17 6.86 15.78 9.78 5.63 2.87 11.48 5.52 17.52 7.64 6.06 2.08 12.16 3.96 18.3 5.19 6.11 1.29 12.19 2.23 18.07 2.68 5.87.58 11.56.55 16.89.45 5.33-.28 10.33-.7 14.87-1.43 4.55-.67 8.63-1.56 12.2-2.47 1.76-.49 3.42-.94 4.95-1.36 1.37-.47 2.64-.9 3.79-1.28.57-.19 1.11-.37 1.62-.53.62-.25 1.21-.48 1.76-.68 1.1-.42 2.03-.78 2.78-1.06 1.5-.58 2.31-.89 2.31-.89 9.44-3.63 20.04 1.08 23.67 10.53 3.63 9.44-1.08 20.03-10.52 23.67-.73.27-1.58.53-2.32.71z"/>
  <path class="st9" d="M686.61 1153.87c-5.12 4.96-38.71 29.66-43.13 40.5-7.02 17.19 18.15 41.31 35.5 45.1 10 2.19 15.38-7.89 19.13-15.46 6.12-12.36 13.33-23.73 18.94-36.33 5.22-11.72 15.17-35.49 8.59-43.2-9.94-11.63-32.47 3.02-39.03 9.39z"/>
  <path class="st10" d="M880.77 1139.57c-13.07 18.4-27.37 30.52-40.99 45.41-8.91 9.74-26.55 16.81-27.15 39.72-.56 21.87-71.02 6.58-88.47 8.78-21.58 2.7-19.89-24.22-24.76-43.92-18.67-75.55 70.93-145.73 115.49-123.17 12.51-10.23 21.63-20.91 31.78-26.38 1.4-.74 2.81-1.4 4.28-1.93 2.21-.84 4.45-1.4 6.86-1.64 6.42-.63 13.63.98 22.5 5.85 2.8 1.51 5.74 3.4 8.9 5.61 36.9 26.08 10.87 64.44-8.44 91.67z"/>
  <path d="M880.32 1042.3c-.74 1.68-1.83 3.37-3.19 4.97-4.03 4.8-14.93 16.18-22.82 11.6-6.37-3.71-8.58-11.56-7.64-18.85-.2-6.4 33.65-4.94 33.65 2.28z" fill="#363636"/>
  <path d="M857.82 1035.95c-.06.63-.14 1.66-.17 2.04-.49 3.19-1.09 6.3-1.75 9.57-.46 2.13-2.76 5.99-4.44 2.13-.94-2.17-.85-4.63-.85-7.01.04-1.54.28-4.35.5-5.86 1.97-.5 4.29-.62 6.71-.87z" opacity=".3" fill="#bec0c2"/>
  <path class="st10" d="M859.36 1570.46c-31.11 51.65-145.91 48.42-193.6 40.44-52.8-8.87-100.14-44.46-93.28-110.49 3.75-36.05 24.46-69.3 41.91-101.75 3.99-7.43 7.85-14.83 11.24-22.22 2.91-6.28 6.31-13.35 10.07-21.06 22.04-45.38 55.92-111.71 66.54-150.85 42.33 9.29 66.08 18.5 110.37 20.18-2.03 18.99 5.82 70.57 10.41 103.51 4.8 34.54 13.77 66.36 19.69 101.19 2.84 16.72-.88 47.3-20.04 55.82l-2.38.35c41.98.89 63.74 43.95 39.07 84.88z"/>
  <path d="M833.41 1476.4c-9.28-.81-18.53-.51-28.27 2.08-3.35.9-5.33-2.54-4.11-5.34 6.36-14.52 13.1-32.66 8.13-48.35-.66 9.25-2.5 18.37-6.02 27.05-4.05 10.02-10.44 19.74-13.62 29.97-1.64 4.02-11.63 17.69-17.76 25.13 4.37-1.41 18.4-12.7 28.59-16.88 7.6-3.11 15.36-3.96 23.42-3.6.18-.22.34-.46.53-.66-1.32-.11 6.25-5.61 9.11-9.4z" fill="#e8dfe1"/>
  <path class="st14" d="M819.59 1261.01c1.15 5.4-3.76 8.39-8.98 7.59l-124.08-10.83c-5.23-.79-6.53-2.9-5.87-7.34l7.66-18.16c3.06-6.32 7.24-5.86 12.46-5.07l102.74 7.52c5.23.79 11.75-1.53 13.51 8.7l2.56 17.59z"/>
  <path class="st9" d="M728.4 1171.73c-.71 7.09-10.43 47.64-6.81 58.78 5.73 17.65 40.53 19.83 56.23 11.53 9.05-4.79 6.66-15.95 4.63-24.16-3.3-13.4-5.14-26.73-8.98-39.97-3.58-12.33-11.33-36.9-21.32-38.54-15.11-2.47-22.86 23.27-23.75 32.36z"/>
  <path class="st15" d="M425.89 1514.66c-2.52 12.41 5.97 26.48 16.57 32.54M412.09 1531.74c.21 7.13 3.95 12.93 9.7 17.13M475.5 1485.69c11.86 4.44 19.29 19.09 18.8 31.29M496.83 1481.98c6.09 3.73 9.27 9.86 10.05 16.93"/>
  <path class="st8" d="M682.05 1375.97c5.5-14.3 11.72-31.53 21.46-8.49 11.25 26.61-6.69 53.66-27.74 69.72-11.23 8.56-36.1.98-29.11-15.16 2.41-5.56 16.41-13 20.85-18.94 6.17-8.25 10.85-17.54 14.54-27.13z"/>
  <path class="st9" d="M601.73 1448.91c.06-.23.16-.47.28-.7 1.68-3.22 6.25-1.84 8.88-2.87 6.85-2.69.47-14.99 6.02-18.16 7.38-4.22 15.51 8.29 15.92 14.09.28 3.98-.74 10.21-3.03 13.59-4.8 7.08-15.85 5.12-22.16 1.52-2.31-1.31-6.77-4.28-5.91-7.47z"/>
  <path class="st8" d="M637.21 1373.99c-3.85 2.59-5.82 4.41-6.28 9.14-.3 3.75.74 7.95-1.71 11.21-3.09 4.1-9.95 3.79-14.83 4.32 3.99-7.43 7.85-14.83 11.24-22.22 2.91-6.28 6.31-13.35 10.07-21.06 1.12.07 2.35.35 3.58.88 11.03 4.59 4.8 13.14-2.07 17.73zM682.2 1347.53c2.47 2.1 5.38 1 7.27-1.29 10.6-12.87-13.96-4.42-7.27 1.29z"/>
  <path class="st16" d="M780.5 1078.08c-6.16-.82-12.85-1.25-18.18 1.96-9.12 5.49-9.55 19.54-3.43 28.25 6.12 8.71 16.57 13.18 26.68 16.51 8.31 2.74 19.54 3.98 23.88-3.63 2.24-3.93 1.59-8.84 2.87-13.17 1.09-3.7 3.53-6.82 5.27-10.26 3.1-6.15 3.87-13.44 2.13-20.11-11.37-4.99-24.46-5.94-36.43-2.66"/>
  <path class="st9" d="M659.32 1326.4c.41.73 1.32 1.29 2.93 1.53 4.39.66 9.62-2.43 13.48-4.15 7.03-3.12 13.26-7.61 17.35-14.24 3.55-5.76 10.13-21.45 1.08-25.9-12.4-6.09-15.78 19.93-21.13 25.79-2.9 3.18-6.52 5.63-9.53 8.7-1.88 1.9-5.47 5.97-4.18 8.27z"/>
  <path d="M801.46 1084.66c-13-3.42-19.28 11.1-7.58 18" fill="none" stroke="#363636" stroke-width="3.504" stroke-linecap="round" stroke-linejoin="round" stroke-miterlimit="10"/>
  <path class="st16" d="M715.01 1312.51c-2.82 1.17-5.66 2.74-6.31 6.3-1.12 6.09 5.09 15.35 11.47 19.33 6.38 3.98 12.55 4 18.07 3.38 4.54-.51 9.55-2.81 7.81-8.96-.9-3.17-3.38-6.19-4.85-9.37-1.25-2.71-1.7-5.41-2.57-8.13-1.56-4.86-4.57-9.82-8.29-13.67-6.77-.1-12.39 2.89-15.64 8.34"/>
  <path class="st8" d="M798.2 1143.53c2.47 2.1 5.38 1 7.27-1.29 10.6-12.87-13.96-4.42-7.27 1.29z"/>
  <path class="st16" d="M634.93 1481.91c2.47 2.1 5.38 1 7.27-1.29 10.6-12.87-13.96-4.42-7.27 1.29z"/>
  <path class="st18" d="M1101.05 964.17c-1.69 6.68-5.61 19.2-3.91 25.26 3.23-2.86 6.75-5.21 9.05-8.97 2.74-4.5 5.86-9.79 7.65-14.75 1.27-3.52 1.16-7.58 1.95-11.24.58-2.68.86-3.81.02-6.43-.69-2.14-.56-1.61-2.64-4.49-5.26 3.68-10.88 15.75-12.12 20.62z"/>
  <path class="st19" d="M1255.17 814.74s-.34 1.32-.97 3.78c-.22.99-.94 3.43-1.65 5.74-.38 1.2-.78 2.49-1.2 3.87-.45 1.42-.82 2.32-1.26 3.62-1.71 4.93-3.86 10.57-6.37 16.97-2.53 6.36-5.44 13.45-8.67 21.1-6.5 15.3-14.3 32.9-23.27 51.64-4.46 9.37-9.28 19.04-14.5 28.95-1.38 2.5-2.75 5.02-4.14 7.54-1.45 2.57-3.09 5.27-4.64 7.88-.9 1.41-2 3-3 4.49l-1.56 2.25-1.25 1.62-.09.09-.16.19-.35.37-.69.74-1.38 1.49-.17.18-.4.4-.85.8-1.74 1.58c-1.18 1.02-2.41 2-3.66 2.93-.65.53-1.15.82-1.68 1.12l-1.56.91c-8.46 4.93-17.03 6.69-24.5 7.28-7.46.47-14.24-.12-20.63-1.04-12.6-2.08-23.71-5.64-34.03-9.56-20.51-8-37.9-17.59-52.41-26.5-14.46-9.01-25.93-17.43-33.82-24.14-3.94-3.29-7.02-6.27-9.13-8.33-2.11-2.25-3.24-3.45-3.24-3.45-5.42-5.77-5.15-14.84.62-20.26 5.45-5.11 13.83-5.15 19.31-.29l.95.85s.79.71 2.28 2.02c1.63 1.35 4.09 3.38 7.64 5.87 7 5.02 17.99 11.8 31.74 18.85 13.76 6.97 30.44 14.36 48.3 19.62 8.88 2.59 18.1 4.58 26.66 5.24 4.2.24 8.18.14 11.47-.38 3.22-.56 5.38-1.64 6.14-2.4l.19-.13c.07-.04.16-.08-.02-.02-.2.07-.38.19-.53.35-.07.07-.13.17-.19.27l-.07.15s-.03.08-.02.06l.16-.19 1.25-1.6.62-.8.31-.4.16-.2.07-.09c.28-.36-2.15 2.74-1.1 1.38l.61-1.17 1.29-2.37c1.01-2.1 2.03-4.21 3.04-6.31 1.02-2.28 2.02-4.55 3.03-6.82 3.96-9.32 7.74-18.77 11.24-28.05 7.04-18.55 13.17-36.19 18.15-51.26 2.47-7.55 4.64-14.44 6.5-20.53 1.8-6.06 3.32-11.31 4.37-15.43.25-.98.61-2.2.73-2.81.14-.66.27-1.27.38-1.83.26-1.23.49-1.79.72-3.3.41-2.5.65-3.84.65-3.84l.09-.58c2.66-15.66 17.5-26.21 33.15-23.55 15.66 2.66 26.21 17.5 23.56 33.14-.12.74-.3 1.56-.48 2.3z"/>
  <path class="st20" d="M1177.96 989.55c7.03-6.17 14.17-20.34 18.53-28.44 13.13-24.46 22.06-48.46 31.98-74.39 2.77-7.21 5.53-14.43 8.54-21.55 5.15-12.2 10.1-24.54 14.51-37.03 3.06-8.67 7.77-19.53 5.44-28.7-1.28-5.02-4.4-12.38-8.55-15.47-3.66-2.72-10.25-5.36-14.8-6.13-9.22-1.56-20.42 2.98-26.88 9.68-6.26 6.46-9.53 16.39-11.98 24.66-2.82 9.58-4.3 18.52-7.56 27.94-3.05 8.82-5.56 17.81-8.85 26.55-4.49 11.84-9.32 23.55-13.81 35.4-3.65 9.72-6.21 18.88-10.42 28.37-3.45 7.8-5.26 20.02-16.17 18.9-2.1-.22-24.87-5.11-24.76-5.78 2.28 12.89-3.99 33.29-15.98 45.77 49.03 21.84 67.02 12.26 80.76.22z"/>
  <path class="st21" d="M1501.14 524.47c5.46-18.07 8.44-37.34 7.8-56.24-.36-10.71-1.52-21.41-3.68-31.89-9.91-47.97-60.45-91.24-110.98-95.89-12.73-1.17-33.01-1.77-44.75 3.39-17.63 7.75-35.88 31.5-37.47 51.61-1.9 24.19 39.85 34.18 53.88 48.3 12.86 12.97 21.93 28.06 22.23 46.25.64 40.6.24 80.33 4.03 120.89 1.12 12.11-2.41 26.95.18 38.47 2.8 17.89 4.75 34.29 9.3 51.58 4.39 16.76 17.14 29.24 29.73 40.88 12.26 11.34 45.21 21.33 53.23 17.43.47-.28-17.35-10.41-13.12-27.43 4.82 6.67 7.97 13.74 11.99 18.43 5.17 6.04 6.84 10.03 15.92 12.57 6.88 1.92 13.35 2.99 20.6-1.38-10.54-5.82-12.38-16.08-12.66-23.04-.3-7.52 3.04-14.71 4.05-22.1 1.68-12.37.93-29.95-5.5-41.01-2.38-4.07-6.21-7.64-8.01-12.07-.21-.72-.44-1.41-.65-2.08-.01-.07-.05-.13-.06-.2 5.96 3.36 13.36 11.6 17.51 19.53.41-9.12-1.06-15.69-5.11-22.87-7.86-13.92-20.45-25.13-25.13-40.74-5.68-18.91-.68-41.65 4.15-60.56 2.86-11.23 9.19-20.86 12.52-31.83zM1400.59 679.4s5.45 19 9.67 28.09c2.72 5.88 10.75 18.97 10.75 18.97-18.51-16.53-20.42-47.06-20.42-47.06zm99.9-182.13c1.82-13.18 4.88-51.93 2.46-59.06 4.86 14.37 3.68 32.08 1.79 51.97-1.39 14.67-4.01 25.87-9.43 40.18-2.97 7.84-3.33 11.64-8.15 21.59 2.68-11.8 11.89-44.4 13.33-54.68z"/>
  <path class="st22" d="M1089.83 1603.45c.44 11.71 19.98 13.61 48.02 11.63 33.23-2.37 52.73.26 53.18-23.8.33-17.33-9.26-17.07-20.86-16.25-9.79.69-16.36-1.58-32.46 4.14-25.26 7.87-48.46 8.37-47.88 24.28z"/>
  <path class="st23" d="M1091.55 1599.73c1.14 10.17 18.8 10.84 46.39 8.7 32.69-2.51 51.86 0 52.43-24.04.43-17.28-9-15.34-20.42-16.1-9.75-.67-16.09-1.48-31.96 4.29-24.86 8-47.44 18.39-46.44 27.15z"/>
  <path class="st22" d="M1113.53 1580.93c5.01 7.87 8.41 16.36 7.18 24.51-.23 1.47-.14 2.83.06 4.08-18.31.74-30.41-.81-30.59-9.89-.14-7.61 9.66-13.39 23.35-18.7z"/>
  <path class="st24" d="M1126.92 1577.38c3.53 1.01 4.75 6.74 5.14 9.76M1137.03 1573.34c3.42 2.42 5.98 8.11 6.16 10.97"/>
  <path class="st19" d="M1185.84 1568.31c.62-8.54 1.04-16.42 2.3-24.89 2.26-15.26 2.98-29.88 3.23-44.84-9.13 1.57-18.27 3.07-27.44 4.37-7.66 1.07-16.18 1.38-24.21 2.95 2.07 7.4 4.11 14.8 5.28 22.21 1.94 12.39 3.51 23.99 5.45 36.35 1.27 8.08 5.19 13.54 13.07 13.86 11.24.43 22.42 1.2 22.32-10.01z"/>
  <path d="M1138.62 1539.25c13.9 3.99 41.14.83 56.71-2.77 1.51-4.2.94-9.97.97-14.31.09-8.95-.19-17.88-.47-26.8-.62-20.06-1.81-40.08-3.68-60.06-1.58-16.99-4.01-33.86-7.79-50.5-3.78-16.56-8.16-32.63-11.77-48.11-1.81-7.7-3.42-15.27-4.59-22.37-1.2-7.08-1.93-13.79-1.89-19.13-.06-5.31 1.06-9.11 1.58-8.88.03-.01.05.03.07.08 0 .08.07-.07-.08.44l-.2.52-.11.26c-.04.11-.11.22 0 .04l.75-1.39.1-.18c-.99 2.01-.22.49-.42.89l.19-.28.38-.56.75-1.13 1.51-2.25c2.01-2.95 4.02-5.85 6.17-8.65 8.3-11.27 17.73-21.8 28.14-33.04 5.35-5.82 10.6-11.55 15.74-17.12 5.27-5.76 10.43-11.52 15.65-17.46 2.43-2.8 4.8-5.54 7.15-8.26 2.31-2.86 4.59-5.7 6.83-8.46 4.25-5.29 8.36-10.39 12.31-15.3 15.51-19.26 28.38-33.79 37-42.63 2.16-2.29 4.03-4.03 5.66-5.67 1.31-1.22 2.41-2.23 3.31-3.06 2.98-2.64 4.56-4.05 4.56-4.05l.19-.16c.86-.76 1.71-1.56 2.52-2.39 22.3-22.45 22.18-58.73-.28-81.02-22.44-22.29-58.72-22.17-81.02.27 0 0-1.49 1.52-4.3 4.33-1.81 1.88-4.4 4.55-6.98 7.34-2.29 2.58-5.01 5.59-7.76 8.87-11.3 13.16-24.93 31.74-39.78 53.25-3.63 5.31-7.42 10.83-11.33 16.56-1.87 2.71-3.73 5.47-5.65 8.27-1.91 2.94-3.85 5.92-5.84 8.94-3.63 5.62-7.64 11.69-11.85 17.92-4.32 6.42-8.73 12.99-13.22 19.66-9.14 13.79-19.42 29.63-28.16 47.06-2.2 4.32-4.24 8.76-6.24 13.16l-1.45 3.34-.73 1.66-.36.82-.18.42c-.26.53.45-.88-.6 1.24l-.08.19-2.13 5.18c-.59 1.47-.84 2.33-1.2 3.4-.35 1.02-.68 2.07-.95 3.08-2.32 8.16-3.2 15.72-3.43 22.55-.23 6.87.2 13.06.89 18.86 1.43 11.55 3.88 21.54 6.54 30.88 2.69 9.34 5.7 17.97 8.67 26.23 6 16.48 12.05 31.56 17.02 45.55 2.49 6.99 4.71 13.66 6.48 19.92 1.88 6.5 2.78 11.08 4.36 19 1.43 7.08 2.8 13.89 4 20.41 1.33 6.54 7.92 72.74 8.32 75.4z" fill="#474258"/>
  <path class="st26" d="M1171.16 610.97c1.06-6.96-4.07-15.6-6.65-21.71-2.38-5.64-5.17-17.74-10.52-21.44-8.77-6.06-17.1 1.34-19.94 8.7-7.17 18.62-9.44 29.88 9.54 39.02 9.53 4.58 25.15 11.31 27.57-4.57z"/>
  <path class="st14" d="M1379.98 398.22c-1.96 14.56-9.85 16.67-34.04 13.41-24.19-3.24-42.22-17.69-40.25-32.24 1.97-14.55 19.41-28.36 43.61-25.1 24.18 3.24 32.63 29.37 30.68 43.93z"/>
  <path class="st27" d="M1430.6 556.34c-1.39-9.66-9.2-4.47-14.65.8-8.48 8.25-12.24 19.86-16.27 30.61-3.2 8.52-8.32 15.89-12.63 23.76 0 .42-.01.83-.09 1.27-1.71 10.27-.1 20.2 2.02 30.16.99-.23 2.07-.84 3.24-2.07 14.96-15.46 26.97-32.93 33.52-53.54 2.69-8.4 6.13-22.2 4.86-30.99z"/>
  <path class="st23" d="M1161.82 1583.05c.78-4.08 2.05-6.99-1.25-11.55-3.01-4.18-7.19-6.85-12.18-5.33-2 .59-5.56 3.42-6.65 5.13"/>
  <path class="st22" d="M1277.47 1627.18c2.55 11.43 22.11 9.76 49.33 2.74 32.25-8.34 51.9-9.27 48-33.01-2.8-17.11-12.19-15.13-23.45-12.21-9.51 2.45-16.38 1.4-31.18 9.93-23.41 12.32-46.14 17.01-42.7 32.55z"/>
  <path class="st23" d="M1278.49 1623.19c2.97 9.8 20.45 7.27 47.2.18 31.69-8.39 51.01-9.39 47.22-33.14-2.71-17.06-11.63-13.46-23-12.14-9.71 1.11-16.09 1.46-30.65 10-23.01 12.37-43.33 26.67-40.77 35.1z"/>
  <path class="st22" d="M1296.72 1600.74c6.34 6.83 11.23 14.55 11.49 22.81.05 1.49.37 2.8.79 4-17.87 4.04-30.05 4.7-31.86-4.18-1.52-7.47 7.07-14.93 19.58-22.63z"/>
  <path class="st24" d="M1309.24 1594.84c3.64.35 5.89 5.77 6.82 8.67M1318.45 1589.02c3.81 1.77 7.35 6.9 8.06 9.68"/>
  <path class="st19" d="M1365.55 1575.25c-.94-8.51-1.95-16.34-2.25-24.89-.54-15.42-2.48-29.93-4.93-44.69-8.7 3.2-17.42 6.32-26.2 9.25-7.35 2.45-15.67 4.3-23.29 7.3 3.38 6.88 6.72 13.79 9.21 20.88 4.16 11.83 7.8 22.95 11.94 34.77 2.7 7.72 7.56 12.38 15.36 11.26 11.15-1.61 22.27-2.87 20.16-13.88z"/>
  <path d="M1313.85 1555.21c14.39 1.4 40.61-6.63 55.28-12.98.72-4.41-.88-9.98-1.64-14.26-1.53-8.8-3.41-17.55-5.31-26.28-4.23-19.61-9.02-39.08-14.48-58.4-4.63-16.42-10.06-32.58-16.79-48.26-6.71-15.61-13.92-30.62-20.28-45.19-3.17-7.24-6.12-14.4-8.56-21.16-2.46-6.73-4.39-13.2-5.33-18.48-1.01-5.21-.6-9.15-.05-9.01 0 0 .05.01.08.06.01.08.06-.07.01.45l-.11.56-.06.27c-.02.1-.06.23.01.03l.49-1.51.07-.2c-.61 2.16-.13.52-.25.94l.13-.31.27-.62.54-1.24 1.07-2.47c1.45-3.28 2.9-6.5 4.51-9.64 6.13-12.59 13.49-24.65 21.7-37.59 4.2-6.69 8.33-13.27 12.39-19.68 4.13-6.63 8.17-13.21 12.23-20 1.87-3.19 3.73-6.31 5.54-9.41 1.75-3.24 3.48-6.44 5.17-9.57 3.23-5.97 6.34-11.73 9.34-17.27 11.79-21.75 21.81-38.37 28.68-48.61 1.71-2.65 3.23-4.7 4.55-6.6 1.05-1.43 1.97-2.63 2.7-3.62 2.44-3.13 3.75-4.8 3.75-4.8l.16-.19c.71-.91 1.39-1.85 2.05-2.81 17.87-26.11 11.18-61.77-14.93-79.63-26.1-17.87-61.77-11.18-79.63 14.92 0 0-1.19 1.76-3.44 5.04-1.43 2.17-3.5 5.26-5.53 8.48-1.79 2.96-3.93 6.41-6.03 10.12-8.73 14.99-18.78 35.72-29.49 59.58-2.61 5.86-5.33 11.98-8.16 18.33-1.33 3-2.67 6.06-4.04 9.16-1.36 3.24-2.73 6.51-4.13 9.84-2.55 6.19-5.41 12.88-8.42 19.78-3.08 7.1-6.24 14.34-9.45 21.71-6.49 15.22-13.74 32.64-19.18 51.38-1.39 4.65-2.59 9.38-3.75 14.08l-.83 3.55-.41 1.76-.21.88-.11.45c-.16.57.29-.95-.36 1.32l-.05.19-1.16 5.49c-.31 1.55-.39 2.44-.57 3.56-.16 1.07-.29 2.14-.38 3.2-.81 8.45-.3 16.04.7 22.8 1.01 6.8 2.57 12.8 4.29 18.39 3.49 11.1 7.71 20.49 12.02 29.19 4.33 8.7 8.85 16.63 13.27 24.22 8.88 15.13 17.56 28.86 24.97 41.72 3.72 6.42 7.1 12.59 9.98 18.42 3.02 6.06 4.74 10.4 7.73 17.9 2.68 6.7 5.26 13.15 7.62 19.35 2.5 6.21 20.94 70.12 21.82 72.67z" fill="#504c5e"/>
  <path class="st23" d="M1344.59 1594.09c.02-4.15.75-7.25-3.32-11.14-3.72-3.56-8.31-5.43-12.94-3.03-1.85.95-4.85 4.37-5.61 6.25"/>
  <path class="st14" d="M1214.09 1062.03c.92 1.15 2.11 2.25 3.64 3.28 8.88 5.96 31.23 8.88 41.37 9.06 16.55.31 32.69-3.36 48.86-6.36 13.7-2.53 27.59-3.97 41.34-6.2 13.26-2.15 27.09-4.28 40.41-1.29 8.57 1.91 20.17 8.77 28.86 4.38 10.36-5.23 1.5-19.71-3.36-28.17-9.54-16.6-20.42-31.63-24.74-44.17-13.37-38.99 4.61-59.3 5.83-104.64.61-22.62-1.72-40.49-1.44-63.11.09-7.02 11.56-42.79-7.22-53.47-17.05-9.7-47.57-8.33-65.08-10.04-5.58-.53-11.06-1.95-16.64-2.6-6.21-.72-12.66-2.22-18.76-.83-32.11 7.38-58.84 12.31-63.69 28.72-17.56 20.01-33.75 64.32-32.45 87.42 1.92 34.26 22.56 41.42 32.11 69.57 6.39 18.81 7.59 40.2 3.9 59.9-1.97 10.55-4.63 24.37-11.48 39.74-2.8 6.3-5.34 13.92-1.46 18.81z"/>
  <path class="st20" d="M1265.37 923.78c35.37-.92 70.66-17.54 71.19-17.74-31.06 6.65-51.82 8.24-79.26 9.35-14.39.58-34.61-2.56-49.92-6.08.7 1.04 1.39 2.08 2.12 3.12 15.66 11.35 38.69 11.79 55.87 11.35z"/>
  <g>
    <path d="M1243.73 773.54c-.95 4.91.71 13.78 2.01 17.08 3.59 9.11 11.59 16.36 21.41 18.31 11.73 2.33 23.36.87 35.09-1.38 17.62-3.38 31.74-18.8 30.44-41.86" fill="#5faee0" stroke="#5a9cc3" stroke-width="3.7783" stroke-linecap="round" stroke-linejoin="round" stroke-miterlimit="10"/>
  </g>
  <path class="st19" d="M1440.9 557.64c.84 14.87-12.86 26.73-24.97 29.51-16.82 3.84-24.21-11.82-25.05-26.69-.84-14.87 9.68-27.57 23.49-28.34 13.82-.78 25.7 10.65 26.53 25.52z"/>
  <path class="st19" d="M1265.52 385.59c-42 2.36-78.47 19.21-99.34 68.04-14.54 33.96-20.88 94.4-18.87 130.2 3.39 60.39 32.47 84.12 74.6 108.43 4.9 2.84 9.96 4.84 14.59 7.5 8.88 5.08 18.35 8.3 23.43 17.88 5.26 9.9 7.31 22.62 4.65 33.57-2.18 8.86-12.85 13.52-13.06 23.06-.23 11.47 17.16 19.82 36.9 18.71 19.72-1.11 36.76-11.46 34.56-22.73-1.43-7.32-9.02-9.23-12.42-15.04-7.1-12.17-4-33.1 2.32-44.83 5.27-9.8 14.68-13.79 23.21-20.06 1.62-1.18 3.36-2.18 5.02-3.35 40.37-28.46 67.56-56.16 64.1-117.63-2.24-39.79-17.87-103.65-39.67-137.78-26.01-40.71-61.29-48.15-100.02-45.97z"/>
  <path d="M1259.92 717.64c3.5 6.57 5.53 14.38 5.75 22.1 11.34 10.52 29.09 14.7 45.76 16.7-.3-.39-.62-.78-.88-1.22-7.1-12.17-4-33.1 2.32-44.83.8-1.5 1.72-2.83 2.72-4.08-7.08 4.11-24.67 9.01-36.74 8.22-9.08-.59-18.09-2.02-26.05-5.21 2.79 2.19 5.26 4.83 7.12 8.32z" fill="#eba48f"/>
  <path d="M1205.43 593.99c.41 7.35-3.22 13.53-8.12 13.81-4.9.27-9.21-5.47-9.62-12.81-.41-7.35 3.23-13.53 8.12-13.81 4.91-.28 9.21 5.46 9.62 12.81z"/>
  <g>
    <path d="M1195.58 587.7s-1.31-.37-3.27-.91c-.99-.31-2.12-.61-3.2-.66-1.15-.14-2.39-.29-3.62-.44-2.57.08-5.32-.13-7.27.27-2.01.27-3.35.46-3.35.46s1.23-.58 3.07-1.46c1.85-1.02 4.5-1.65 7.2-2.58 1.44-.27 2.89-.55 4.25-.8 1.44-.32 2.65-.36 3.64-.37 2.04-.08 3.4-.13 3.4-.13 1.86-.07 3.43 1.39 3.5 3.25.07 1.87-1.39 3.43-3.25 3.5-.35.01-.69-.03-1.01-.12l-.09-.01z"/>
  </g>
  <path class="st31" d="M1204.47 587.26c.19 3.14-1.36 5.78-3.47 5.9-2.09.12-3.94-2.34-4.12-5.49-.18-3.15 1.38-5.79 3.48-5.91 2.1-.11 3.94 2.34 4.11 5.5z"/>
  <path d="M1303.84 588.46c.41 7.36 4.71 13.09 9.61 12.81 4.9-.27 8.53-6.46 8.12-13.8-.41-7.35-4.72-13.09-9.61-12.82-4.91.28-8.53 6.46-8.12 13.81z"/>
  <g>
    <path d="M1311.35 574.62s1.35-.1 3.39-.25c.99-.1 2.19-.19 3.65-.04 1.38.1 2.85.21 4.32.32 2.78.62 5.49.94 7.43 1.75 1.93.67 3.22 1.11 3.22 1.11s-1.35-.03-3.39-.08c-1.98-.18-4.69.33-7.25.55-1.21.28-2.42.56-3.55.84-1.07.17-2.15.6-3.11 1.01-1.89.76-3.15 1.27-3.15 1.27l-.06.02c-1.73.7-3.7-.14-4.4-1.87-.69-1.73.15-3.7 1.87-4.4.35-.12.7-.2 1.03-.23z"/>
  </g>
  <path class="st31" d="M1312.33 581.19c.18 3.14 2.03 5.6 4.12 5.47 2.1-.11 3.65-2.76 3.47-5.9-.18-3.16-2.02-5.6-4.1-5.49-2.11.12-3.67 2.77-3.49 5.92z"/>
  <g>
    <path d="M1299.72 651.09c1.15 5.87-1.19 13.41-3.22 17.86-4.95 10.74-12.32 14.39-21.68 15.99-8.37 1.43-13.98.25-22.96-5.53-4.25-2.76-14.86-18.2-10.6-22.36.13-.06.21-.19.37-.27.24-.13.53-.29.84-.38 3.96-1.2 9.26 1.12 13.38 1.54 4.58.44 9.62.81 14.01-.2 6.07-1.4 11.91-3.73 17.68-6.25 2.22-.99 6.7-5.61 9.64-4.56 0 0 .09.04.11.02l.01.06c.4.13.74.38 1.1.78.59.72 1.05 1.77 1.32 3.3z" fill="#d55f5a"/>
    <path class="st22" d="M1297.18 646.88c.8 13.46-11.98 16.61-19.87 18.33-7.41 1.62-15.34 2.52-22.95 2.37-5.18-.11-10.34-4.33-12.75-10.89.25-.12.54-.27.86-.37 3.97-1.13 9.21.84 13.31 1.14 4.56.3 9.57.54 13.97-.43 6.08-1.36 11.95-3.55 17.74-5.91 2.23-.92 6.79-5.12 9.69-4.24z"/>
  </g>
  <g>
    <path class="st26" d="M1176.34 566.52s.32-.34.86-.93c.53-.54 1.67-1.51 2.85-2.26 2.44-1.62 5.77-3.42 9.72-4.53l1.63-.29c.88-.12 1.04-.06 1.58-.1.93-.01 1.77-.09 2.7-.05 1.95.2 3.86.32 5.35.8.77.19 1.47.36 2.1.56.64.3 1.21.57 1.67.78.93.46 1.46.73 1.46.73 1.61.81 2.26 2.77 1.46 4.38-.8 1.61-2.76 2.26-4.37 1.46-.11-.06-.21-.12-.32-.18l-.66-.43s-.28-.19-.76-.5c-.24-.18-.54-.38-.87-.62-.44-.19-.94-.4-1.48-.63-1.09-.56-2.41-.8-3.85-1.23-.78-.17-1.73-.22-2.62-.35-.35-.03-1.12-.15-1.14-.12l-1.11.02c-3.27.39-6.76 1.6-9.11 2.71-1.25.58-1.97 1-2.66 1.5-.63.5-.99.79-.99.79-.44.37-1.1.31-1.47-.13-.34-.4-.3-1 .03-1.38z"/>
  </g>
  <g>
    <path class="st26" d="M1329.26 559.81s-1.64-1.01-4.08-2.03c-1.24-.5-2.7-.99-4.3-1.31-.81-.1-1.61-.34-2.46-.33-.84-.01-1.68-.14-2.53-.01l-1.26.1c-.14.01-.58.03-.46.04l-.69.15c-.91.2-1.81.39-2.67.58-1.43.6-2.7.91-3.74 1.6-.52.29-1 .56-1.43.79-.32.28-.59.53-.83.73-.46.38-.73.6-.73.6l-.58.47c-1.38 1.15-3.44.94-4.58-.44-1.15-1.39-.94-3.44.44-4.58.08-.06.17-.13.25-.19 0 0 .5-.34 1.37-.93.44-.28.97-.62 1.58-1.01.62-.25 1.31-.54 2.07-.84 1.45-.7 3.46-1.01 5.4-1.46.89-.07 1.8-.15 2.72-.22l.7-.06c.58-.05.61 0 .94 0l1.56.07c1.04 0 2.07.27 3.07.42 1.01.14 1.95.53 2.87.77 1.82.61 3.41 1.39 4.72 2.12 2.61 1.53 4.06 2.71 4.06 2.71l.11.09c.57.46.65 1.3.19 1.87-.41.53-1.15.64-1.71.3z"/>
  </g>
  <path class="st27" d="M1432.49 538.99c4.88-36.5-18.34-88.74-31.27-106.79-6.46-9.02-14.46-19.02-22.77-27.22-19.74-19.5-35.13-33.92-65.05-31.02-25.22-4.17-76.01-2.22-100.85 8.37-24.38 10.4-46.79 25.66-62.96 46.68-11.94 15.54-23.44 46.19-28.13 72.83-11.73 66.7 3.37 95.78 8.58 101.69 4.76-18.4 25.08-32.51 34.38-43.65 6.23-7.46 20.74-26.05 27.94-31.28-2.27 8.39-15.06 18.64-14.17 27.42 9.87-10.86 28.36-16.85 43.02-19.23 25.13-4.07 65.12-8.31 87.56-21.09 36.34-20.71 30.12-48.17 30.12-48.17 5.72 9.84 11.05 19.17 15.25 29.76 6.82 17.19 9.72 27.37 14.63 42.32 2.31 7.05 9.57 18.99 17.55 19.64 10 .81 14.5-15.82 17.03-22.78 9.82-7.53 22.92-4.78 29.14 2.52z"/>
  <path class="st21" d="M1163.09 425.74c22.17-26.05 48.49-39.02 81.31-46.92 21.62-5.2 44.85-6.98 66-4.84.11-.13.22-.26.35-.38-25.97-3.63-74.18-1.48-98.2 8.75-24.38 10.4-46.79 25.66-62.96 46.68-11.94 15.54-23.44 46.19-28.13 72.83-8.42 47.85-3.02 76.35 2.63 90.81-6.99-27.12-4.13-60.63 1.47-86.78 6.31-29.43 17.85-57.04 37.53-80.15z"/>
  <path class="st18" d="M1425.71 993.87c4.21 5.47 11.61 16.29 17.42 18.71-.24-4.3.09-8.53-1.44-12.66-1.83-4.94-4.06-10.66-6.85-15.14-1.97-3.17-5.23-5.6-7.62-8.48-1.75-2.11-2.47-3.04-5.04-4-2.11-.79-1.6-.57-5.16-.71-.35 6.4 5.64 18.28 8.69 22.28z"/>
  <path class="st19" d="M1403.78 780.34s.83 1.07 2.35 3.09c.64.78 2.1 2.86 3.49 4.85.71 1.04 1.47 2.15 2.3 3.34.84 1.24 1.32 2.08 2.06 3.24 2.82 4.39 5.91 9.57 9.38 15.5 3.43 5.92 7.2 12.59 11.21 19.87 7.98 14.59 16.97 31.6 26.15 50.25 4.6 9.3 9.21 19.07 13.75 29.3 1.12 2.64 2.25 5.27 3.36 7.92 1.12 2.74 2.22 5.68 3.31 8.52.56 1.58 1.12 3.43 1.67 5.15l.8 2.61.49 1.98.02.13.04.24.08.5.16 1 .32 2 .04.25.07.56.1 1.17.16 2.34c.07 1.56.08 3.13.05 4.69 0 .84-.08 1.42-.17 2l-.25 1.8c-1.37 9.69-5.29 17.52-9.45 23.75-4.26 6.15-8.91 11.11-13.58 15.56-9.44 8.6-19.11 15.12-28.58 20.8-18.98 11.15-37.27 18.88-53.26 24.75-16.03 5.77-29.74 9.57-39.89 11.62-5.02 1.06-9.27 1.64-12.2 2.01-3.07.27-4.72.41-4.72.41-7.89.68-14.84-5.14-15.52-13.02-.64-7.44 4.51-14.05 11.73-15.35l1.26-.22s1.03-.19 2.99-.54c2.08-.45 5.18-1.12 9.34-2.37 8.26-2.39 20.39-6.83 34.45-13.27 14-6.48 30.12-15.01 45.31-25.77 7.52-5.38 14.8-11.39 20.61-17.7 2.79-3.16 5.17-6.34 6.8-9.24 1.56-2.87 2.05-5.24 1.93-6.31l.01-.21c.02-.09.04-.18-.03 0-.07.19-.09.41-.06.62.02.11.05.21.1.32l.07.15s.04.07.04.05l-.06-.24-.49-1.97-.23-.99-.13-.5-.06-.24-.03-.12c-.11-.44.83 3.39.41 1.73l-.54-1.2-1.06-2.48c-1.03-2.1-2.07-4.2-3.09-6.3-1.16-2.21-2.32-4.39-3.47-6.6-4.87-8.88-9.95-17.7-15.08-26.2-10.21-17.02-20.26-32.75-29.01-45.99-4.4-6.62-8.47-12.59-12.1-17.82-3.65-5.16-6.83-9.61-9.41-12.99-.61-.8-1.35-1.84-1.75-2.31-.44-.51-.83-.99-1.2-1.43-.81-.97-1.11-1.5-2.15-2.6-1.71-1.89-2.61-2.89-2.61-2.89l-.4-.43c-10.66-11.79-9.75-29.96 2.03-40.61 11.78-10.66 29.96-9.75 40.61 2.02.53.56 1.06 1.21 1.53 1.82z"/>
  <path class="st14" d="M1493.26 949.19c-.49-9.33-7.2-23.71-10.86-32.15-11.09-25.46-24.4-47.33-38.63-71.18-3.95-6.64-7.91-13.28-11.63-20.04-6.4-11.59-13.02-23.12-20.1-34.32-4.92-7.77-10.53-18.18-19.17-22.03-4.74-2.11-12.44-4.21-17.45-2.86-4.39 1.19-10.54 4.73-13.97 7.82-6.93 6.27-10.29 17.88-9.05 27.11 1.2 8.92 6.98 17.63 11.96 24.66 5.78 8.14 11.88 14.84 17.26 23.24 5.04 7.85 10.55 15.4 15.37 23.39 6.52 10.85 12.73 21.9 19.24 32.76 5.35 8.89 10.99 16.57 15.83 25.74 3.99 7.54 12.47 16.53 4.82 24.4-1.47 1.51-19.4 16.37-19.87 15.86 11.53 6.19 23.67 23.75 26.06 40.88 47.52-24.98 51.13-45.03 50.19-63.28z"/>
  <g>
    <path class="st19" d="M1291.96 1019.23c-5.87 3.07-17.69 15.57-19.87 21.89-2.67 7.72 6.59 16.98 12.55 20.84 8.65 5.58 10.74-2.28 17.05-6.95 7.8-5.76 19.2-2.12 28.22-5.35.94-5.17-1.4-9.91-3.8-14.45-3.89-7.32-3.19-11.35-11.33-13.65-6.88-1.94-15.86-5.97-22.82-2.33z"/>
    <path class="st33" d="M1274.63 1049.78s3-4.55 6.01-9.1c3.67-4.22 7.34-8.45 7.34-8.45.59-.68 1.62-.75 2.3-.17.68.59.76 1.63.17 2.3l-.11.11-.18.17s-3.85 3.67-7.69 7.34l-6.84 8.52c-.2.27-.59.32-.87.12-.25-.2-.31-.57-.13-.84zM1282.33 1057.2s.7-1.05 1.76-2.63c.97-1.6 2.7-3.58 4.27-5.64.91-.94 1.81-1.88 2.66-2.76.8-.93 1.71-1.66 2.56-2.23l2.75-2c.72-.54 1.74-.37 2.27.35.53.73.37 1.74-.36 2.27l-.06.04-.38.24s-.99.61-2.48 1.54c-.77.43-1.64 1.01-2.46 1.83-.86.76-1.78 1.57-2.69 2.38-1.64 1.85-3.41 3.54-4.53 5.1-1.17 1.49-1.96 2.48-1.96 2.48-.28.36-.81.42-1.17.14-.34-.27-.41-.76-.18-1.11z"/>
  </g>
  <path d="M952.71 896.99c9.33-9 23.07-10.58 33.99-4.92 1.56.8 3.06 1.78 4.49 2.91 1.06.84 2.09 1.74 3.06 2.75 5.29 5.5 8.02 12.44 8.23 19.48.06 1.8-.05 3.59-.3 5.37-.93 6.15-3.82 12.04-8.65 16.71-10.2 9.85-25.7 10.85-36.95 3.17-1.44-1-2.85-2.14-4.16-3.42l-.46-.49c-5.53-5.74-8.25-13.15-8.2-20.56-.03-1.81.16-3.59.51-5.34 1.07-5.79 3.9-11.27 8.44-15.66z" fill="#d7df23"/>
  <g>
    <path class="st35" d="M977.8 921.25c5.02-2.23 16.62-4.81 24.68-4.05.06 1.8-.05 3.59-.3 5.37-6.41-.64-17.34 1.44-22.21 3.6-11.77 5.2-19.47 10.55-23.4 16.28-1.44-1-2.85-2.14-4.16-3.42 4.61-6.42 12.97-12.29 25.39-17.78z"/>
  </g>
  <g>
    <path class="st35" d="M969.01 906.11c4.9-2.16 13.87-8.88 17.69-14.05 1.56.8 3.06 1.78 4.49 2.91-4.72 6.65-14.89 13.77-20.02 16.04-10.96 4.83-20 7.14-27.41 6.97-.03-1.81.16-3.59.51-5.34 6.46.07 14.6-2.08 24.74-6.53z"/>
  </g>
  <path class="st19" d="M1018.12 919.64c-.48-2.58-2.72-6.7-5.31-9.83-.27-1.2-.64-2.4-1.04-3.61-2.07-6.31-.28-8.8-8.07-13.18-6.57-3.69-14.76-9.53-22.88-9.46-6.85.06-22.3 4.47-26.21 8-4.78 4.33-.9 9.72 3.24 15.29 3.77 5.08 7.52 2.39 21.55 2.41 5.28.01 11.49 2.16 17.7 4.25.18 4.16-.22 8.26-1.68 12.3-1.65 4.57-3.09 7.89-5.87 11.63-4.19 5.66 2.92 8.5 6.05 5.82 2.88-2.46 6.45-7.39 12.33-9.4 8.73-2.98 10.83-10.82 10.19-14.22z"/>
  <g>
    <path class="st33" d="M953.91 897.45s4.49-2.15 9-4.25c4.83-1.59 9.67-3.19 9.67-3.19.76-.25 1.58.16 1.83.92s-.16 1.58-.92 1.83c-.04.02-.08.03-.12.04l-.19.04-9.48 2.2c-4.68 1.68-9.34 3.42-9.34 3.42-.29.11-.61-.03-.72-.31-.11-.27.02-.57.27-.7zM959.97 905.13s1.08-.5 2.69-1.26c.79-.4 1.76-.8 2.84-1.19 1.06-.39 2.19-.88 3.34-1.24 1.18-.33 2.35-.65 3.45-.96 1.08-.36 2.17-.46 3.1-.58 1.86-.24 3.09-.4 3.09-.4.79-.1 1.52.45 1.62 1.25.1.79-.46 1.52-1.25 1.62-.03 0-.07.01-.1.01l-.28.01s-1.13.06-2.8.17c-.85.05-1.84.05-2.9.32-1.06.21-2.2.44-3.33.66-1.12.27-2.22.65-3.26.95-1.05.29-2.03.6-2.86.94-1.66.63-2.77 1.06-2.77 1.06-.38.15-.81-.05-.95-.43-.14-.36.03-.76.37-.93z"/>
  </g>
  <g id="Artwork_2_1_">
    <defs>
      <path id="SVGID_3_" transform="rotate(-3.139 1289.60311312 870.56730515)" d="M1221.04 854.88h139.86v31.44h-139.86z"/>
    </defs>
    <clipPath id="SVGID_4_">
      <use xlink:href="#SVGID_3_" overflow="visible"/>
    </clipPath>
    <g clip-path="url(#SVGID_4_)">
      <defs>
        <path id="SVGID_5_" transform="rotate(-3.139 1289.60311312 870.56730515)" d="M1221.04 854.88h139.86v31.44h-139.86z"/>
      </defs>
      <clipPath id="SVGID_6_">
        <use xlink:href="#SVGID_5_" overflow="visible"/>
      </clipPath>
      <path class="st37" d="M1235.81 857.86c.25-.01.45 0 .6.04.15.04.26.13.34.26.08.14.14.33.17.58.03.25.06.58.08 1 1.07.02 2.04.13 2.9.32.86.2 1.62.46 2.29.8.67.34 1.24.74 1.72 1.22.48.47.89.99 1.21 1.57.32.57.57 1.19.74 1.85.17.66.28 1.35.31 2.07.05.91 0 1.8-.16 2.67-.16.87-.4 1.71-.72 2.52-.32.81-.72 1.58-1.19 2.31s-.99 1.41-1.57 2.05c-.58.63-1.2 1.21-1.86 1.73-.66.52-1.35.98-2.05 1.36-.71.38-1.43.7-2.17.94-.73.24-1.46.4-2.19.47-.37 1.28-.82 2.41-1.36 3.41-.54 1-1.15 1.85-1.84 2.55-.69.7-1.45 1.25-2.29 1.64-.84.39-1.76.61-2.74.66-.62.03-1.18-.02-1.69-.17-.51-.15-.94-.37-1.31-.66-.36-.3-.65-.66-.86-1.09-.21-.43-.33-.92-.36-1.45-.02-.36.03-.71.15-1.05.12-.34.29-.65.51-.92.22-.27.48-.5.77-.68.29-.18.6-.29.92-.32.41.39.8.7 1.18.91.38.21.74.31 1.08.29.57-.03 1.07-.49 1.5-1.37.43-.88.83-2.18 1.2-3.89.15-.71.31-1.46.47-2.26.16-.79.31-1.6.46-2.43.15-.83.3-1.66.45-2.5.15-.84.3-1.66.43-2.46.14-.8.27-1.57.41-2.31.13-.74.26-1.42.37-2.05-.5.12-1 .26-1.5.45-.49.18-.96.39-1.4.61-.44.22-.83.46-1.19.71-.36.25-.65.5-.89.74-.2.01-.4-.02-.6-.09-.2-.07-.39-.18-.55-.33-.17-.15-.3-.34-.41-.57-.11-.23-.17-.51-.19-.82-.03-.58.14-1.18.5-1.8.37-.61.89-1.19 1.59-1.74s1.53-1.04 2.51-1.48c.98-.44 2.07-.78 3.26-1.03.05-.3.19-.59.4-.85s.46-.5.74-.7c.29-.2.59-.37.91-.49.33-.14.63-.21.92-.22m4.81 11.59c-.03-.5-.11-.98-.26-1.45-.15-.46-.38-.88-.71-1.25-.33-.37-.76-.69-1.31-.95s-1.23-.45-2.06-.56c-.05.76-.11 1.61-.18 2.55-.07.94-.16 1.93-.26 2.97-.1 1.03-.2 2.09-.32 3.17s-.25 2.13-.39 3.16c.09.01.18.02.28.02.1 0 .17-.01.22-.01.52-.03 1.01-.15 1.47-.36.46-.21.88-.49 1.26-.84s.72-.76 1.01-1.24c.29-.47.54-.99.73-1.54.2-.56.34-1.14.43-1.76.1-.62.12-1.26.09-1.91M1253.49 880.82c-.24.83-.52 1.53-.83 2.08-.31.55-.64 1-.98 1.33-.34.34-.68.58-1.03.72s-.68.23-.99.25c-.51.03-1-.05-1.44-.24-.45-.19-.84-.48-1.18-.88-.34-.4-.61-.9-.83-1.51-.21-.61-.34-1.32-.38-2.13-.05-.9.02-1.8.2-2.71s.45-1.78.8-2.62c.35-.84.78-1.62 1.27-2.36.49-.73 1.02-1.37 1.59-1.92s1.16-.99 1.78-1.32c.62-.33 1.22-.51 1.82-.54.25-.01.45-.01.59.03.14.03.26.09.35.18v-2.09c.13-.17.31-.29.52-.38.22-.09.45-.14.7-.15.61-.03 1.16.03 1.64.19s.88.38 1.22.64c.33.27.59.57.77.9.18.33.28.66.3.97.01.23 0 .56-.03.99-.04.42-.11.89-.23 1.4-.25 1.15-.47 2.15-.64 3.03-.17.87-.31 1.62-.41 2.26-.1.63-.17 1.16-.21 1.57-.04.41-.05.74-.04.97.01.18.03.33.05.43s.06.19.1.25c.04.06.09.09.15.11.06.01.12.02.19.02.18-.01.42-.11.73-.3s.66-.49 1.06-.88.84-.9 1.33-1.51c.48-.61.99-1.33 1.52-2.17.19-.01.36.01.53.05.17.05.31.12.43.21s.22.21.3.34c.07.13.12.28.13.44.02.29-.05.64-.21 1.03-.15.4-.37.82-.64 1.27-.27.45-.6.92-.98 1.4-.38.48-.78.95-1.21 1.41-.43.46-.88.89-1.34 1.3-.46.41-.92.78-1.36 1.09-.45.31-.87.57-1.28.76-.41.19-.77.3-1.1.31-.39.02-.75 0-1.08-.08-.33-.07-.61-.22-.84-.43-.23-.21-.42-.5-.57-.88-.14-.37-.23-.84-.26-1.42-.01-.2-.01-.42 0-.65-.02-.24 0-.49.02-.76m.67-9.3c-.43.31-.85.72-1.24 1.24s-.74 1.09-1.03 1.73c-.29.64-.52 1.31-.68 2.02-.16.71-.22 1.41-.18 2.1.02.33.06.6.12.79.06.19.14.33.23.43.09.1.19.16.31.18.12.02.23.03.36.02.25-.01.5-.11.73-.29.24-.18.46-.41.66-.7l.72-7.52z"/>
      <path class="st37" d="M1263.99 872.61c-.18-.14-.32-.29-.44-.45-.11-.16-.2-.33-.27-.5-.07-.17-.11-.35-.14-.52-.03-.17-.05-.34-.05-.51-.01-.37.04-.75.16-1.11.12-.37.3-.72.54-1.06.23-.34.52-.65.85-.95.33-.29.69-.55 1.09-.78.4-.22.82-.41 1.27-.54.45-.14.91-.22 1.38-.25.48-.03.89.01 1.23.1.34.1.62.24.84.43.22.19.38.41.49.67.11.26.17.54.19.85.01.09.01.18.01.27 0 .09 0 .18-.02.27-.36.42-.72.91-1.07 1.45-.35.54-.68 1.11-1 1.71-.31.6-.6 1.21-.86 1.83-.26.62-.48 1.23-.66 1.83-.18.6-.32 1.17-.41 1.71-.09.54-.12 1.03-.1 1.46.03.56.13.94.31 1.16.18.22.41.32.7.3.09 0 .2-.02.34-.04s.29-.05.44-.1c.16-.05.31-.12.47-.2.16-.08.31-.2.44-.33-.02-.12-.04-.31-.06-.55-.02-.25-.03-.5-.05-.77-.04-.71-.01-1.42.08-2.14.09-.72.23-1.41.42-2.08.19-.67.42-1.29.69-1.88.27-.59.56-1.1.88-1.53s.65-.78 1-1.04.7-.4 1.04-.42c.46-.02.85.02 1.18.15.33.12.6.3.81.53.21.23.37.51.48.84.11.33.17.69.19 1.07.02.4-.01.89-.08 1.45-.08.56-.21 1.17-.41 1.82-.19.65-.45 1.32-.77 2.02s-.72 1.38-1.19 2.06c.07.48.2.84.41 1.06.2.22.43.33.68.31.25-.01.47-.11.69-.3.21-.19.41-.44.59-.75s.34-.68.49-1.09.27-.86.38-1.33c.11-.47.2-.96.28-1.46.08-.5.14-1 .18-1.48.04-.49.07-.95.09-1.4.01-.45.01-.86-.01-1.22-.01-.22-.03-.45-.06-.7-.03-.25-.06-.5-.1-.75-.04-.25-.07-.49-.1-.72-.03-.23-.06-.44-.08-.63.15-.28.38-.51.69-.69.31-.18.68-.28 1.09-.31.39-.02.73.01 1.03.11.3.09.57.22.8.4.23.17.43.38.59.61.17.23.3.48.41.74.11.26.19.53.25.8s.09.53.1.77c.06 1.06.01 2.14-.16 3.21-.16 1.08-.42 2.12-.76 3.12-.35 1-.78 1.94-1.29 2.82-.52.88-1.1 1.64-1.74 2.31-.65.66-1.35 1.19-2.12 1.59-.76.4-1.57.62-2.41.67-.7.04-1.31-.12-1.85-.47s-.98-.94-1.34-1.77c-.32.33-.66.64-1.02.93-.36.28-.74.53-1.13.75-.39.21-.8.39-1.21.51-.42.13-.83.2-1.25.23-.63.03-1.21-.02-1.75-.16-.53-.14-1-.39-1.39-.74-.4-.35-.72-.8-.96-1.37-.24-.56-.38-1.25-.43-2.06-.04-.71-.01-1.4.09-2.05.1-.65.26-1.29.47-1.92.21-.63.48-1.25.81-1.88.34-.61.7-1.25 1.1-1.92M1284.76 872.96c.32-.02.62.06.9.22s.54.37.75.61c.22.25.39.51.53.8.13.29.21.54.22.76.01.19 0 .36-.03.53-.03.17-.08.33-.15.5-.07.16-.16.32-.26.48-.11.16-.23.33-.37.51.09.39.23.75.43 1.07.19.32.41.59.64.81.23.22.48.39.73.51s.48.17.68.16c.09 0 .18-.02.27-.06.09-.03.17-.09.24-.16.07-.07.12-.16.16-.27.04-.11.05-.24.04-.39-.02-.3-.09-.67-.21-1.1-.13-.43-.28-.88-.46-1.37-.18-.49-.38-1-.59-1.52-.21-.53-.41-1.05-.59-1.56s-.34-1-.47-1.47c-.13-.47-.2-.89-.22-1.26-.04-.75.07-1.45.32-2.09.26-.64.63-1.2 1.11-1.68.48-.48 1.07-.86 1.75-1.15.69-.29 1.44-.45 2.26-.5 1.04-.06 1.86.12 2.47.53.6.41.93 1.05.97 1.91.02.38-.03.75-.16 1.1-.12.36-.29.65-.49.88-.71-.25-1.35-.36-1.93-.33-.38.02-.66.1-.85.24-.19.14-.27.37-.25.7.01.27.08.57.2.9.12.33.27.69.44 1.07.17.38.36.78.56 1.2.2.42.39.85.56 1.28.18.44.33.88.45 1.32.13.44.2.89.23 1.32.04.73-.02 1.38-.18 1.97-.16.59-.4 1.12-.71 1.58-.31.47-.68.87-1.11 1.22-.43.35-.9.64-1.4.87-.5.23-1.03.41-1.58.54-.55.13-1.09.2-1.63.23-.7.04-1.36-.04-1.98-.24-.62-.2-1.16-.52-1.64-.96-.48-.44-.86-.99-1.15-1.66-.29-.67-.47-1.45-.51-2.33-.02-.35-.02-.73-.01-1.15.01-.42.04-.83.09-1.25.05-.42.13-.83.23-1.22s.23-.74.38-1.05c.16-.31.34-.56.57-.75.2-.19.46-.29.75-.3M1297.63 875.07c.11-2.2.25-4.19.4-5.99.15-1.79.33-3.39.56-4.8.22-1.41.49-2.63.8-3.66.31-1.03.69-1.9 1.13-2.59.44-.69.95-1.21 1.54-1.57.58-.35 1.26-.55 2.03-.59.39-.02.73.01 1.02.08.3.08.55.21.75.41.2.19.36.45.48.77s.19.71.21 1.16c.02.39-.01.83-.1 1.32-.08.49-.25 1.06-.49 1.72-.24.66-.57 1.44-.98 2.33-.41.89-.94 1.93-1.58 3.12l-.68 3.42c1.24-1.26 2.38-2.21 3.41-2.85s1.91-.97 2.61-1.01c.34-.02.64.02.91.1.27.09.49.22.68.4.19.18.33.39.43.65.1.26.16.54.18.86.03.56-.02 1.13-.14 1.71-.12.59-.3 1.23-.53 1.93-.09.27-.18.57-.29.9-.11.33-.22.68-.34 1.03-.12.36-.23.71-.33 1.07-.11.36-.2.7-.28 1.01-.08.32-.15.6-.2.85-.05.25-.07.45-.06.61.01.2.06.34.15.41.09.07.22.11.37.1.16-.01.41-.13.75-.37.33-.23.72-.58 1.16-1.04.44-.46.92-1.01 1.44-1.68.52-.66 1.05-1.43 1.59-2.3.17-.01.34.01.51.06.17.05.33.12.46.21.14.1.25.21.34.36.09.14.14.3.15.48.02.28-.06.62-.21 1.03-.16.41-.38.85-.67 1.32-.29.47-.63.96-1.02 1.47s-.82 1.01-1.28 1.5c-.46.49-.94.96-1.45 1.4-.5.44-1.01.83-1.51 1.17-.5.34-.99.62-1.47.83-.48.21-.92.33-1.34.35-.53.03-.98-.01-1.35-.1-.37-.1-.67-.26-.91-.49-.24-.23-.41-.53-.53-.89-.12-.36-.19-.79-.21-1.28-.02-.4 0-.84.07-1.32.07-.48.16-.97.27-1.47.11-.5.23-1 .37-1.49.13-.49.26-.95.37-1.36.12-.41.21-.78.29-1.08.08-.31.11-.53.11-.66-.01-.15-.05-.28-.12-.39-.07-.12-.21-.17-.41-.16-.31.02-.67.14-1.07.36-.4.22-.84.55-1.3.99-.05.64-.1 1.3-.14 1.96-.04.66-.07 1.35-.09 2.06-.02.71-.03 1.44-.02 2.2.01.76.03 1.56.06 2.4-.15.19-.37.33-.66.43-.29.09-.61.15-.97.17-.34.02-.68-.01-1-.1-.32-.08-.62-.21-.9-.37s-.53-.36-.76-.59c-.23-.23-.43-.48-.6-.75-.17-.27-.31-.56-.41-.86-.1-.31-.17-.61-.19-.92-.03-.56.02-1.16.16-1.82.15-.63.42-1.36.83-2.16"/>
      <path class="st37" d="M1320.66 877.17c-.24.83-.52 1.53-.83 2.08-.31.55-.64 1-.98 1.33-.34.34-.68.58-1.03.72s-.68.23-.99.25c-.51.03-1-.05-1.44-.24-.45-.19-.84-.48-1.18-.88-.34-.4-.61-.9-.83-1.51-.21-.61-.34-1.32-.38-2.13-.05-.9.02-1.8.2-2.71.18-.91.45-1.78.8-2.62.35-.84.78-1.62 1.27-2.36.49-.73 1.02-1.37 1.59-1.92.57-.55 1.16-.99 1.78-1.32s1.22-.51 1.82-.54c.25-.01.45-.01.59.03.14.03.26.09.35.18v-2.09c.13-.17.31-.29.52-.38.22-.09.45-.14.7-.15.61-.03 1.16.03 1.64.19s.88.38 1.22.64c.33.27.59.57.77.9.18.33.28.66.3.97.01.23 0 .56-.03.99-.04.42-.11.89-.23 1.4-.25 1.15-.47 2.15-.64 3.03-.17.87-.31 1.62-.41 2.26-.1.63-.17 1.16-.21 1.57-.04.41-.05.74-.04.97.01.18.03.33.05.43.02.11.06.19.1.25.04.06.09.09.15.11.06.01.12.02.19.02.18-.01.42-.11.73-.3s.66-.49 1.06-.88c.4-.4.84-.9 1.33-1.51.48-.61.99-1.33 1.52-2.17.19-.01.36.01.53.05.17.05.31.12.43.21s.22.21.3.34c.07.13.12.28.13.44.02.29-.05.64-.21 1.03-.15.4-.37.82-.64 1.27-.27.45-.6.92-.98 1.4-.38.48-.78.95-1.21 1.41-.43.46-.88.89-1.34 1.3-.46.41-.92.78-1.36 1.09-.45.31-.87.57-1.28.76-.41.19-.77.3-1.1.31-.39.02-.75 0-1.08-.08-.33-.07-.61-.22-.84-.43-.23-.21-.42-.5-.57-.88-.14-.37-.23-.84-.26-1.42-.01-.2-.01-.42 0-.65-.02-.24 0-.49.02-.76m.67-9.3c-.43.31-.85.72-1.24 1.24s-.74 1.09-1.03 1.73c-.29.64-.52 1.31-.68 2.02-.16.71-.22 1.41-.18 2.1.02.33.06.6.12.79.06.19.14.33.23.43.09.1.19.16.31.18.12.02.23.03.36.02.25-.01.5-.11.73-.29.24-.18.46-.41.66-.7l.72-7.52z"/>
      <path class="st37" d="M1329.89 873.32c.13-2.25.28-4.29.44-6.1s.37-3.42.6-4.83c.23-1.41.51-2.62.83-3.65.32-1.02.7-1.87 1.14-2.54.44-.67.95-1.17 1.53-1.51.58-.34 1.24-.53 1.99-.57.39-.02.74.01 1.05.08.32.08.59.21.82.4.23.19.41.45.55.77.13.32.21.71.24 1.16.01.26.01.54-.02.84-.03.3-.09.63-.18.99-.09.37-.21.77-.36 1.22-.15.45-.33.96-.55 1.53-.22.57-.48 1.21-.78 1.91-.3.7-.65 1.49-1.04 2.37-.18.4-.35.85-.52 1.33-.17.48-.32.97-.45 1.47s-.25.98-.34 1.46c-.09.47-.16.91-.19 1.29l2.35-1.13c.16-.39.34-.78.53-1.17.19-.39.4-.75.62-1.09.37-.58.72-1.06 1.03-1.46.32-.4.61-.71.89-.96.28-.24.55-.42.8-.54.25-.11.5-.18.74-.19.44-.02.82.04 1.16.18.33.15.61.35.84.6.23.25.4.55.53.87.12.33.19.66.21 1 .02.27.01.52-.01.73-.02.22-.08.42-.17.61-.09.19-.22.37-.4.55-.18.18-.42.37-.71.58-.3.21-.66.44-1.09.7-.43.26-.95.56-1.54.89.05.97.12 1.79.2 2.45.08.66.18 1.19.31 1.6.12.4.26.69.42.86.16.17.35.25.57.24.23-.01.5-.13.79-.34.29-.22.63-.54 1-.99.37-.44.79-1 1.25-1.68.46-.68.98-1.49 1.56-2.43.17-.01.34.01.51.05.17.04.33.1.46.19.14.09.25.2.34.33.09.13.14.29.15.47.01.26-.05.59-.19.99s-.34.84-.6 1.32c-.26.48-.57.98-.93 1.5-.36.52-.75 1.04-1.17 1.55-.42.51-.86 1-1.33 1.46-.47.47-.94.88-1.41 1.23-.47.36-.94.65-1.4.87-.46.22-.9.34-1.31.37-.58.03-1.08-.04-1.49-.22-.41-.18-.76-.48-1.04-.92-.28-.43-.5-1-.66-1.7-.16-.7-.26-1.55-.32-2.56-.02-.45-.03-.9-.02-1.35.01-.45.03-.88.06-1.28l-1.58.74c-.01.41-.02.81-.03 1.23v1.35c.01.49.02 1.03.03 1.62.02.59.04 1.27.07 2.04-.19.23-.44.41-.76.55-.32.14-.69.22-1.11.24-.34.02-.68-.01-1-.1-.32-.08-.62-.21-.9-.37s-.53-.36-.76-.59c-.23-.23-.43-.48-.6-.75-.17-.27-.31-.56-.41-.86-.1-.31-.17-.61-.19-.92-.03-.56.02-1.16.16-1.82.11-.64.38-1.37.79-2.16"/>
      <path class="st37" d="M1350.82 880.04c-.88.05-1.65-.05-2.31-.28-.66-.23-1.22-.6-1.67-1.09-.45-.49-.8-1.11-1.05-1.85s-.39-1.6-.45-2.57c-.05-.91.02-1.81.2-2.72.18-.9.44-1.77.79-2.61.35-.83.76-1.61 1.25-2.34.49-.72 1.01-1.36 1.56-1.9.56-.54 1.14-.98 1.74-1.3.6-.32 1.19-.5 1.78-.53 1.24-.07 2.21.18 2.9.75.69.57 1.07 1.48 1.14 2.74.04.75-.04 1.47-.24 2.15-.2.68-.55 1.3-1.05 1.89-.5.58-1.16 1.11-1.99 1.58-.83.47-1.85.88-3.06 1.23.02.4.07.76.13 1.07.07.31.17.57.31.77.14.2.32.35.55.45.23.1.52.14.87.12.61-.03 1.25-.19 1.91-.48.67-.29 1.33-.67 1.98-1.17.65-.49 1.28-1.08 1.88-1.75.6-.67 1.13-1.42 1.6-2.23.22-.01.41.02.59.09.17.06.32.15.44.25s.22.22.29.36c.07.14.11.28.11.42.02.33-.05.71-.21 1.14-.16.43-.38.88-.67 1.35-.29.47-.65.95-1.06 1.45-.41.49-.87.98-1.36 1.45-.5.47-1.03.91-1.59 1.33-.56.42-1.14.79-1.73 1.11-.59.32-1.19.58-1.8.78-.6.19-1.2.3-1.78.34m1.93-12.21c-.02-.38-.1-.67-.25-.87-.14-.2-.32-.29-.54-.28-.12.01-.27.09-.43.26-.16.16-.32.41-.47.73-.15.32-.29.72-.4 1.19-.11.48-.18 1.03-.21 1.66.5-.12.9-.27 1.21-.47.31-.2.54-.41.71-.65.17-.24.28-.49.33-.76.05-.28.06-.54.05-.81"/>
    </g>
  </g>
</svg>
