<svg width="348" height="26" viewBox="0 0 348 26" fill="none" xmlns="http://www.w3.org/2000/svg">
<rect width="121.333" height="26" fill="white"/>
<path d="M2 2H24V24H2V2ZM25.8333 2H47.8333V24H25.8333V2ZM49.6667 2H71.6667V24H49.6667V2ZM73.5 2H95.5V24H73.5V2ZM97.3333 2H119.333V24H97.3333V2Z" fill="#00B67A"/>
<path d="M13 16.8275L16.3458 15.9796L17.7437 20.2879L13 16.8275ZM20.7 11.2587H14.8104L13 5.71289L11.1896 11.2587H5.29999L10.0667 14.6962L8.25624 20.2421L13.0229 16.8046L15.9562 14.6962L20.7 11.2587ZM36.8333 16.8275L40.1792 15.9796L41.5771 20.2879L36.8333 16.8275ZM44.5333 11.2587H38.6437L36.8333 5.71289L35.0229 11.2587H29.1333L33.9 14.6962L32.0896 20.2421L36.8562 16.8046L39.7896 14.6962L44.5333 11.2587ZM60.6667 16.8275L64.0125 15.9796L65.4104 20.2879L60.6667 16.8275ZM68.3667 11.2587H62.4771L60.6667 5.71289L58.8562 11.2587H52.9667L57.7333 14.6962L55.9229 20.2421L60.6896 16.8046L63.6229 14.6962L68.3667 11.2587ZM84.5 16.8275L87.8458 15.9796L89.2437 20.2879L84.5 16.8275ZM92.2 11.2587H86.3104L84.5 5.71289L82.6896 11.2587H76.8L81.5667 14.6962L79.7562 20.2421L84.5229 16.8046L87.4562 14.6962L92.2 11.2587ZM108.333 16.8275L111.679 15.9796L113.077 20.2879L108.333 16.8275ZM116.033 11.2587H110.144L108.333 5.71289L106.523 11.2587H100.633L105.4 14.6962L103.59 20.2421L108.356 16.8046L111.29 14.6962L116.033 11.2587Z" fill="white"/>
<path d="M130.128 10.24C130.488 10.24 130.838 10.21 131.178 10.15C131.518 10.09 131.823 9.99 132.093 9.85C132.373 9.71 132.608 9.53 132.798 9.31C132.998 9.09 133.128 8.82 133.188 8.5H134.583V19H132.708V11.59H130.128V10.24ZM141.838 8.29C142.588 8.29 143.198 8.465 143.668 8.815C144.148 9.155 144.518 9.595 144.778 10.135C145.048 10.665 145.228 11.25 145.318 11.89C145.418 12.53 145.468 13.15 145.468 13.75C145.468 14.35 145.418 14.97 145.318 15.61C145.228 16.25 145.048 16.84 144.778 17.38C144.518 17.91 144.148 18.35 143.668 18.7C143.198 19.04 142.588 19.21 141.838 19.21C141.088 19.21 140.473 19.04 139.993 18.7C139.523 18.35 139.153 17.91 138.883 17.38C138.623 16.84 138.443 16.25 138.343 15.61C138.253 14.97 138.208 14.35 138.208 13.75C138.208 13.15 138.253 12.53 138.343 11.89C138.443 11.25 138.623 10.665 138.883 10.135C139.153 9.595 139.523 9.155 139.993 8.815C140.473 8.465 141.088 8.29 141.838 8.29ZM141.838 17.785C142.208 17.785 142.518 17.68 142.768 17.47C143.018 17.25 143.213 16.96 143.353 16.6C143.503 16.23 143.608 15.8 143.668 15.31C143.728 14.82 143.758 14.3 143.758 13.75C143.758 13.2 143.728 12.685 143.668 12.205C143.608 11.715 143.503 11.285 143.353 10.915C143.213 10.545 143.018 10.255 142.768 10.045C142.518 9.825 142.208 9.715 141.838 9.715C141.458 9.715 141.143 9.825 140.893 10.045C140.653 10.255 140.458 10.545 140.308 10.915C140.168 11.285 140.068 11.715 140.008 12.205C139.948 12.685 139.918 13.2 139.918 13.75C139.918 14.3 139.948 14.82 140.008 15.31C140.068 15.8 140.168 16.23 140.308 16.6C140.458 16.96 140.653 17.25 140.893 17.47C141.143 17.68 141.458 17.785 141.838 17.785ZM150.173 8.29C150.923 8.29 151.533 8.465 152.003 8.815C152.483 9.155 152.853 9.595 153.113 10.135C153.383 10.665 153.563 11.25 153.653 11.89C153.753 12.53 153.803 13.15 153.803 13.75C153.803 14.35 153.753 14.97 153.653 15.61C153.563 16.25 153.383 16.84 153.113 17.38C152.853 17.91 152.483 18.35 152.003 18.7C151.533 19.04 150.923 19.21 150.173 19.21C149.423 19.21 148.808 19.04 148.328 18.7C147.858 18.35 147.488 17.91 147.218 17.38C146.958 16.84 146.778 16.25 146.678 15.61C146.588 14.97 146.543 14.35 146.543 13.75C146.543 13.15 146.588 12.53 146.678 11.89C146.778 11.25 146.958 10.665 147.218 10.135C147.488 9.595 147.858 9.155 148.328 8.815C148.808 8.465 149.423 8.29 150.173 8.29ZM150.173 17.785C150.543 17.785 150.853 17.68 151.103 17.47C151.353 17.25 151.548 16.96 151.688 16.6C151.838 16.23 151.943 15.8 152.003 15.31C152.063 14.82 152.093 14.3 152.093 13.75C152.093 13.2 152.063 12.685 152.003 12.205C151.943 11.715 151.838 11.285 151.688 10.915C151.548 10.545 151.353 10.255 151.103 10.045C150.853 9.825 150.543 9.715 150.173 9.715C149.793 9.715 149.478 9.825 149.228 10.045C148.988 10.255 148.793 10.545 148.643 10.915C148.503 11.285 148.403 11.715 148.343 12.205C148.283 12.685 148.253 13.2 148.253 13.75C148.253 14.3 148.283 14.82 148.343 15.31C148.403 15.8 148.503 16.23 148.643 16.6C148.793 16.96 148.988 17.25 149.228 17.47C149.478 17.68 149.793 17.785 150.173 17.785ZM158.508 8.29C159.258 8.29 159.868 8.465 160.338 8.815C160.818 9.155 161.188 9.595 161.448 10.135C161.718 10.665 161.898 11.25 161.988 11.89C162.088 12.53 162.138 13.15 162.138 13.75C162.138 14.35 162.088 14.97 161.988 15.61C161.898 16.25 161.718 16.84 161.448 17.38C161.188 17.91 160.818 18.35 160.338 18.7C159.868 19.04 159.258 19.21 158.508 19.21C157.758 19.21 157.143 19.04 156.663 18.7C156.193 18.35 155.823 17.91 155.553 17.38C155.293 16.84 155.113 16.25 155.013 15.61C154.923 14.97 154.878 14.35 154.878 13.75C154.878 13.15 154.923 12.53 155.013 11.89C155.113 11.25 155.293 10.665 155.553 10.135C155.823 9.595 156.193 9.155 156.663 8.815C157.143 8.465 157.758 8.29 158.508 8.29ZM158.508 17.785C158.878 17.785 159.188 17.68 159.438 17.47C159.688 17.25 159.883 16.96 160.023 16.6C160.173 16.23 160.278 15.8 160.338 15.31C160.398 14.82 160.428 14.3 160.428 13.75C160.428 13.2 160.398 12.685 160.338 12.205C160.278 11.715 160.173 11.285 160.023 10.915C159.883 10.545 159.688 10.255 159.438 10.045C159.188 9.825 158.878 9.715 158.508 9.715C158.128 9.715 157.813 9.825 157.563 10.045C157.323 10.255 157.128 10.545 156.978 10.915C156.838 11.285 156.738 11.715 156.678 12.205C156.618 12.685 156.588 13.2 156.588 13.75C156.588 14.3 156.618 14.82 156.678 15.31C156.738 15.8 156.838 16.23 156.978 16.6C157.128 16.96 157.323 17.25 157.563 17.47C157.813 17.68 158.128 17.785 158.508 17.785ZM166.408 11.41H167.938V14.44H170.953V15.97H167.938V19H166.408V15.97H163.393V14.44H166.408V11.41ZM176.742 11.245H178.347V12.745H178.377C178.427 12.535 178.522 12.33 178.662 12.13C178.812 11.93 178.987 11.75 179.187 11.59C179.397 11.42 179.627 11.285 179.877 11.185C180.127 11.085 180.382 11.035 180.642 11.035C180.842 11.035 180.977 11.04 181.047 11.05C181.127 11.06 181.207 11.07 181.287 11.08V12.73C181.167 12.71 181.042 12.695 180.912 12.685C180.792 12.665 180.672 12.655 180.552 12.655C180.262 12.655 179.987 12.715 179.727 12.835C179.477 12.945 179.257 13.115 179.067 13.345C178.877 13.565 178.727 13.84 178.617 14.17C178.507 14.5 178.452 14.88 178.452 15.31V19H176.742V11.245ZM187.077 14.44C187.057 14.17 186.997 13.91 186.897 13.66C186.807 13.41 186.677 13.195 186.507 13.015C186.347 12.825 186.147 12.675 185.907 12.565C185.677 12.445 185.417 12.385 185.127 12.385C184.827 12.385 184.552 12.44 184.302 12.55C184.062 12.65 183.852 12.795 183.672 12.985C183.502 13.165 183.362 13.38 183.252 13.63C183.152 13.88 183.097 14.15 183.087 14.44H187.077ZM183.087 15.565C183.087 15.865 183.127 16.155 183.207 16.435C183.297 16.715 183.427 16.96 183.597 17.17C183.767 17.38 183.982 17.55 184.242 17.68C184.502 17.8 184.812 17.86 185.172 17.86C185.672 17.86 186.072 17.755 186.372 17.545C186.682 17.325 186.912 17 187.062 16.57H188.682C188.592 16.99 188.437 17.365 188.217 17.695C187.997 18.025 187.732 18.305 187.422 18.535C187.112 18.755 186.762 18.92 186.372 19.03C185.992 19.15 185.592 19.21 185.172 19.21C184.562 19.21 184.022 19.11 183.552 18.91C183.082 18.71 182.682 18.43 182.352 18.07C182.032 17.71 181.787 17.28 181.617 16.78C181.457 16.28 181.377 15.73 181.377 15.13C181.377 14.58 181.462 14.06 181.632 13.57C181.812 13.07 182.062 12.635 182.382 12.265C182.712 11.885 183.107 11.585 183.567 11.365C184.027 11.145 184.547 11.035 185.127 11.035C185.737 11.035 186.282 11.165 186.762 11.425C187.252 11.675 187.657 12.01 187.977 12.43C188.297 12.85 188.527 13.335 188.667 13.885C188.817 14.425 188.857 14.985 188.787 15.565H183.087ZM189.322 11.245H191.182L193.147 17.2H193.177L195.067 11.245H196.837L194.062 19H192.142L189.322 11.245ZM197.91 8.29H199.62V9.91H197.91V8.29ZM197.91 11.245H199.62V19H197.91V11.245ZM206.808 14.44C206.788 14.17 206.728 13.91 206.628 13.66C206.538 13.41 206.408 13.195 206.238 13.015C206.078 12.825 205.878 12.675 205.638 12.565C205.408 12.445 205.148 12.385 204.858 12.385C204.558 12.385 204.283 12.44 204.033 12.55C203.793 12.65 203.583 12.795 203.403 12.985C203.233 13.165 203.093 13.38 202.983 13.63C202.883 13.88 202.828 14.15 202.818 14.44H206.808ZM202.818 15.565C202.818 15.865 202.858 16.155 202.938 16.435C203.028 16.715 203.158 16.96 203.328 17.17C203.498 17.38 203.713 17.55 203.973 17.68C204.233 17.8 204.543 17.86 204.903 17.86C205.403 17.86 205.803 17.755 206.103 17.545C206.413 17.325 206.643 17 206.793 16.57H208.413C208.323 16.99 208.168 17.365 207.948 17.695C207.728 18.025 207.463 18.305 207.153 18.535C206.843 18.755 206.493 18.92 206.103 19.03C205.723 19.15 205.323 19.21 204.903 19.21C204.293 19.21 203.753 19.11 203.283 18.91C202.813 18.71 202.413 18.43 202.083 18.07C201.763 17.71 201.518 17.28 201.348 16.78C201.188 16.28 201.108 15.73 201.108 15.13C201.108 14.58 201.193 14.06 201.363 13.57C201.543 13.07 201.793 12.635 202.113 12.265C202.443 11.885 202.838 11.585 203.298 11.365C203.758 11.145 204.278 11.035 204.858 11.035C205.468 11.035 206.013 11.165 206.493 11.425C206.983 11.675 207.388 12.01 207.708 12.43C208.028 12.85 208.258 13.335 208.398 13.885C208.548 14.425 208.588 14.985 208.518 15.565H202.818ZM209.113 11.245H210.928L212.443 17.035H212.473L213.928 11.245H215.653L217.048 17.035H217.078L218.653 11.245H220.393L217.963 19H216.208L214.768 13.24H214.738L213.313 19H211.513L209.113 11.245ZM222.783 16.51C222.833 17.01 223.023 17.36 223.353 17.56C223.683 17.76 224.078 17.86 224.538 17.86C224.698 17.86 224.878 17.85 225.078 17.83C225.288 17.8 225.483 17.75 225.663 17.68C225.843 17.61 225.988 17.51 226.098 17.38C226.218 17.24 226.273 17.06 226.263 16.84C226.253 16.62 226.173 16.44 226.023 16.3C225.873 16.16 225.678 16.05 225.438 15.97C225.208 15.88 224.943 15.805 224.643 15.745C224.343 15.685 224.038 15.62 223.728 15.55C223.408 15.48 223.098 15.395 222.798 15.295C222.508 15.195 222.243 15.06 222.003 14.89C221.773 14.72 221.588 14.505 221.448 14.245C221.308 13.975 221.238 13.645 221.238 13.255C221.238 12.835 221.338 12.485 221.538 12.205C221.748 11.915 222.008 11.685 222.318 11.515C222.638 11.335 222.988 11.21 223.368 11.14C223.758 11.07 224.128 11.035 224.478 11.035C224.878 11.035 225.258 11.08 225.618 11.17C225.988 11.25 226.318 11.385 226.608 11.575C226.908 11.765 227.153 12.015 227.343 12.325C227.543 12.625 227.668 12.99 227.718 13.42H225.933C225.853 13.01 225.663 12.735 225.363 12.595C225.073 12.455 224.738 12.385 224.358 12.385C224.238 12.385 224.093 12.395 223.923 12.415C223.763 12.435 223.608 12.475 223.458 12.535C223.318 12.585 223.198 12.665 223.098 12.775C222.998 12.875 222.948 13.01 222.948 13.18C222.948 13.39 223.018 13.56 223.158 13.69C223.308 13.82 223.498 13.93 223.728 14.02C223.968 14.1 224.238 14.17 224.538 14.23C224.838 14.29 225.148 14.355 225.468 14.425C225.778 14.495 226.083 14.58 226.383 14.68C226.683 14.78 226.948 14.915 227.178 15.085C227.418 15.255 227.608 15.47 227.748 15.73C227.898 15.99 227.973 16.31 227.973 16.69C227.973 17.15 227.868 17.54 227.658 17.86C227.448 18.18 227.173 18.44 226.833 18.64C226.503 18.84 226.133 18.985 225.723 19.075C225.313 19.165 224.908 19.21 224.508 19.21C224.018 19.21 223.563 19.155 223.143 19.045C222.733 18.935 222.373 18.77 222.063 18.55C221.763 18.32 221.523 18.04 221.343 17.71C221.173 17.37 221.083 16.97 221.073 16.51H222.783ZM237.001 19.21C236.381 19.21 235.826 19.11 235.336 18.91C234.856 18.7 234.446 18.415 234.106 18.055C233.776 17.695 233.521 17.265 233.341 16.765C233.171 16.265 233.086 15.715 233.086 15.115C233.086 14.525 233.171 13.98 233.341 13.48C233.521 12.98 233.776 12.55 234.106 12.19C234.446 11.83 234.856 11.55 235.336 11.35C235.826 11.14 236.381 11.035 237.001 11.035C237.621 11.035 238.171 11.14 238.651 11.35C239.141 11.55 239.551 11.83 239.881 12.19C240.221 12.55 240.476 12.98 240.646 13.48C240.826 13.98 240.916 14.525 240.916 15.115C240.916 15.715 240.826 16.265 240.646 16.765C240.476 17.265 240.221 17.695 239.881 18.055C239.551 18.415 239.141 18.7 238.651 18.91C238.171 19.11 237.621 19.21 237.001 19.21ZM237.001 17.86C237.381 17.86 237.711 17.78 237.991 17.62C238.271 17.46 238.501 17.25 238.681 16.99C238.861 16.73 238.991 16.44 239.071 16.12C239.161 15.79 239.206 15.455 239.206 15.115C239.206 14.785 239.161 14.455 239.071 14.125C238.991 13.795 238.861 13.505 238.681 13.255C238.501 12.995 238.271 12.785 237.991 12.625C237.711 12.465 237.381 12.385 237.001 12.385C236.621 12.385 236.291 12.465 236.011 12.625C235.731 12.785 235.501 12.995 235.321 13.255C235.141 13.505 235.006 13.795 234.916 14.125C234.836 14.455 234.796 14.785 234.796 15.115C234.796 15.455 234.836 15.79 234.916 16.12C235.006 16.44 235.141 16.73 235.321 16.99C235.501 17.25 235.731 17.46 236.011 17.62C236.291 17.78 236.621 17.86 237.001 17.86ZM242.338 11.245H243.958V12.385L243.988 12.415C244.248 11.985 244.588 11.65 245.008 11.41C245.428 11.16 245.893 11.035 246.403 11.035C247.253 11.035 247.923 11.255 248.413 11.695C248.903 12.135 249.148 12.795 249.148 13.675V19H247.438V14.125C247.418 13.515 247.288 13.075 247.048 12.805C246.808 12.525 246.433 12.385 245.923 12.385C245.633 12.385 245.373 12.44 245.143 12.55C244.913 12.65 244.718 12.795 244.558 12.985C244.398 13.165 244.273 13.38 244.183 13.63C244.093 13.88 244.048 14.145 244.048 14.425V19H242.338V11.245Z" fill="white"/>
<path d="M262.239 22.1624L264.872 14.715L258.333 9.90147H266.326L268.869 2L271.321 9.90147H279.404L272.919 14.5334L275.317 22.1624L268.723 17.5305L262.239 22.1624Z" fill="#00B67A"/>
<path d="M268.723 17.5303L272.919 14.5332L273.433 16.168L268.723 17.5303Z" fill="#1D373D"/>
<path fill-rule="evenodd" clip-rule="evenodd" d="M281.71 9.69824H290.844V11.405H287.257V20.9815H285.282V11.405H281.71V9.69824ZM290.449 12.8114H292.14V14.3917H292.171C292.224 14.1705 292.324 13.9545 292.471 13.7438C292.63 13.5331 292.814 13.3435 293.025 13.1749C293.246 12.9958 293.488 12.8536 293.752 12.7482C294.015 12.6429 294.284 12.5902 294.557 12.5902C294.768 12.5902 294.91 12.5954 294.984 12.606L295.237 12.6376V14.3759C295.111 14.3548 294.979 14.339 294.842 14.3285C294.715 14.3074 294.589 14.2969 294.463 14.2969C294.157 14.2969 293.867 14.3601 293.593 14.4865C293.33 14.6024 293.098 14.7815 292.898 15.0238C292.698 15.2556 292.54 15.5453 292.424 15.893C292.308 16.2407 292.25 16.641 292.25 17.094V20.9815H290.449V12.8114ZM303.33 20.9817H301.56V19.8438H301.528C301.307 20.2547 300.975 20.5866 300.532 20.8394C300.1 21.0817 299.658 21.2029 299.205 21.2029C298.13 21.2029 297.351 20.9395 296.866 20.4127C296.392 19.8754 296.155 19.0695 296.155 17.9949V12.8115H297.957V17.8211C297.957 18.5375 298.094 19.0432 298.367 19.3382C298.641 19.6331 299.026 19.7806 299.521 19.7806C299.9 19.7806 300.216 19.7227 300.469 19.6068C300.722 19.4909 300.928 19.3382 301.086 19.1485C301.244 18.9483 301.354 18.7113 301.417 18.4374C301.491 18.1635 301.528 17.8685 301.528 17.5524V12.8115H303.33V20.9817ZM307.015 19.4644C306.667 19.2537 306.467 18.885 306.415 18.3582H304.613C304.624 18.8429 304.718 19.2643 304.897 19.6225C305.087 19.9701 305.34 20.2651 305.656 20.5074C305.983 20.7392 306.362 20.913 306.794 21.0289C307.236 21.1448 307.716 21.2028 308.232 21.2028C308.653 21.2028 309.08 21.1554 309.512 21.0605C309.944 20.9657 310.334 20.813 310.681 20.6022C311.04 20.3915 311.329 20.1176 311.551 19.7805C311.772 19.4434 311.882 19.0325 311.882 18.5479C311.882 18.1475 311.803 17.8104 311.645 17.5365C311.498 17.2626 311.298 17.0361 311.045 16.857C310.803 16.6779 310.523 16.5356 310.207 16.4303C309.891 16.3249 309.57 16.2354 309.243 16.1616C308.906 16.0879 308.58 16.0194 308.264 15.9562C307.947 15.893 307.663 15.8192 307.41 15.7349C307.168 15.6401 306.968 15.5242 306.81 15.3873C306.662 15.2503 306.588 15.0712 306.588 14.85C306.588 14.6709 306.641 14.5287 306.746 14.4233C306.852 14.3074 306.978 14.2231 307.126 14.1705C307.284 14.1072 307.447 14.0651 307.616 14.044C307.795 14.023 307.947 14.0124 308.074 14.0124C308.474 14.0124 308.827 14.0862 309.133 14.2337C309.449 14.3812 309.649 14.6709 309.733 15.1028H311.614C311.561 14.6498 311.429 14.2653 311.219 13.9492C311.019 13.6226 310.76 13.3592 310.444 13.1591C310.139 12.9589 309.791 12.8167 309.401 12.7324C309.022 12.6376 308.622 12.5902 308.2 12.5902C307.832 12.5902 307.442 12.627 307.031 12.7008C306.631 12.7745 306.262 12.9062 305.925 13.0959C305.598 13.275 305.324 13.5173 305.103 13.8228C304.892 14.1178 304.787 14.4865 304.787 14.929C304.787 15.3399 304.861 15.6875 305.008 15.972C305.156 16.2459 305.351 16.4724 305.593 16.6515C305.846 16.8306 306.125 16.9728 306.43 17.0782C306.746 17.1835 307.073 17.2731 307.41 17.3468C307.737 17.4206 308.058 17.4891 308.374 17.5523C308.69 17.6155 308.969 17.6945 309.212 17.7893C309.465 17.8736 309.67 17.9895 309.828 18.137C309.986 18.2845 310.07 18.4741 310.081 18.7059C310.091 18.9377 310.033 19.1273 309.907 19.2748C309.791 19.4118 309.638 19.5171 309.449 19.5909C309.259 19.6646 309.054 19.7173 308.832 19.7489C308.622 19.77 308.432 19.7805 308.264 19.7805C307.779 19.7805 307.363 19.6751 307.015 19.4644ZM312.408 12.8115H313.767V10.362H315.568V12.8115H317.196V14.1547H315.568V18.5163C315.568 18.706 315.574 18.8693 315.584 19.0062C315.605 19.1432 315.642 19.2591 315.695 19.3539C315.758 19.4487 315.847 19.5225 315.963 19.5751C316.079 19.6173 316.237 19.6383 316.437 19.6383H316.817C316.943 19.6278 317.07 19.6067 317.196 19.5751V20.9658C316.996 20.9869 316.801 21.0079 316.611 21.029C316.422 21.0501 316.227 21.0606 316.027 21.0606C315.552 21.0606 315.168 21.0185 314.873 20.9342C314.589 20.8394 314.362 20.7077 314.193 20.5391C314.035 20.36 313.925 20.1388 313.862 19.8754C313.809 19.612 313.777 19.3117 313.767 18.9746V14.1547H312.408V12.8115ZM320.07 12.8114H318.363V23.9999H320.164V19.9227H320.196C320.333 20.144 320.502 20.3389 320.702 20.5074C320.912 20.6655 321.139 20.7972 321.381 20.9025C321.624 21.0079 321.876 21.0816 322.14 21.1237C322.403 21.1764 322.667 21.2028 322.93 21.2028C323.53 21.2028 324.052 21.0869 324.494 20.8551C324.937 20.6128 325.3 20.2967 325.585 19.9069C325.88 19.5066 326.096 19.0483 326.233 18.5321C326.38 18.0158 326.454 17.4838 326.454 16.936C326.454 16.3355 326.375 15.7718 326.217 15.2451C326.059 14.7183 325.822 14.26 325.506 13.8702C325.19 13.4699 324.789 13.1591 324.305 12.9378C323.831 12.706 323.272 12.5902 322.63 12.5902C322.103 12.5902 321.613 12.6955 321.16 12.9062C320.707 13.1064 320.354 13.4435 320.101 13.9176H320.07V12.8114ZM324.51 15.8298C324.605 16.1774 324.652 16.5356 324.652 16.9044C324.652 17.2626 324.61 17.6155 324.526 17.9632C324.452 18.3003 324.321 18.6058 324.131 18.8797C323.952 19.1431 323.72 19.3591 323.436 19.5276C323.151 19.6962 322.803 19.7805 322.393 19.7805C322.024 19.7805 321.697 19.7067 321.413 19.5593C321.139 19.4118 320.902 19.2116 320.702 18.9587C320.502 18.7059 320.349 18.4056 320.243 18.058C320.149 17.6998 320.101 17.3152 320.101 16.9044C320.101 16.0299 320.291 15.3293 320.67 14.8026C321.06 14.2758 321.634 14.0124 322.393 14.0124C322.761 14.0124 323.088 14.0967 323.372 14.2653C323.657 14.4233 323.894 14.6393 324.084 14.9132C324.273 15.1766 324.415 15.4821 324.51 15.8298ZM327.808 9.69824H329.61V11.405H327.808V9.69824ZM327.808 12.8114H329.61V20.9815H327.808V12.8114ZM333.061 9.69824H331.26V20.9815H333.061V9.69824ZM338.409 21.2028C337.755 21.2028 337.171 21.0974 336.654 20.8867C336.149 20.6655 335.717 20.3652 335.359 19.9859C335.011 19.6067 334.742 19.1536 334.553 18.6269C334.374 18.1001 334.284 17.5207 334.284 16.8886C334.284 16.267 334.374 15.6928 334.553 15.166C334.742 14.6393 335.011 14.1863 335.359 13.807C335.717 13.4277 336.149 13.1327 336.654 12.922C337.171 12.7008 337.755 12.5902 338.409 12.5902C339.062 12.5902 339.641 12.7008 340.147 12.922C340.663 13.1327 341.095 13.4277 341.443 13.807C341.801 14.1863 342.07 14.6393 342.249 15.166C342.438 15.6928 342.533 16.267 342.533 16.8886C342.533 17.5207 342.438 18.1001 342.249 18.6269C342.07 19.1536 341.801 19.6067 341.443 19.9859C341.095 20.3652 340.663 20.6655 340.147 20.8867C339.641 21.0974 339.062 21.2028 338.409 21.2028ZM338.409 19.7805C338.809 19.7805 339.157 19.6962 339.452 19.5276C339.747 19.3591 339.989 19.1378 340.179 18.8639C340.368 18.59 340.505 18.2845 340.589 17.9474C340.684 17.5997 340.732 17.2468 340.732 16.8886C340.732 16.5409 340.684 16.1932 340.589 15.8456C340.505 15.4979 340.368 15.1924 340.179 14.929C339.989 14.6551 339.747 14.4338 339.452 14.2653C339.157 14.0967 338.809 14.0124 338.409 14.0124C338.008 14.0124 337.661 14.0967 337.366 14.2653C337.071 14.4338 336.828 14.6551 336.639 14.929C336.449 15.1924 336.307 15.4979 336.212 15.8456C336.128 16.1932 336.086 16.5409 336.086 16.8886C336.086 17.2468 336.128 17.5997 336.212 17.9474C336.307 18.2845 336.449 18.59 336.639 18.8639C336.828 19.1378 337.071 19.3591 337.366 19.5276C337.661 19.6962 338.008 19.7805 338.409 19.7805ZM344.464 12.8115H343.105V14.1547H344.464V18.9746C344.475 19.3117 344.507 19.612 344.559 19.8754C344.622 20.1388 344.733 20.36 344.891 20.5391C345.06 20.7077 345.286 20.8394 345.571 20.9342C345.866 21.0185 346.25 21.0606 346.724 21.0606C346.924 21.0606 347.119 21.0501 347.309 21.029C347.499 21.0079 347.693 20.9869 347.894 20.9658V19.5751C347.767 19.6067 347.641 19.6278 347.514 19.6383H347.135C346.935 19.6383 346.777 19.6173 346.661 19.5751C346.545 19.5225 346.456 19.4487 346.392 19.3539C346.34 19.2591 346.303 19.1432 346.282 19.0062C346.271 18.8693 346.266 18.706 346.266 18.5163V14.1547H347.894V12.8115H346.266V10.362H344.464V12.8115Z" fill="white"/>
</svg>
