<svg id="mastercard" xmlns="http://www.w3.org/2000/svg" viewBox="0 0 100 60"><defs><style>.cls-mastercard-1{fill:#fff}.cls-mastercard-2{fill:#e9e9e9}.cls-mastercard-3{fill:none}.cls-mastercard-4{fill:#ff5f00}.cls-mastercard-5{fill:#eb001b}.cls-mastercard-6{fill:#f79e1b}</style></defs><g id="Rectangle"><g><rect class="cls-mastercard-1" x="1" y="1" width="98" height="58" rx="3" ry="3"/><path class="cls-mastercard-2" d="M96 2a2 2 0 0 1 2 2v52a2 2 0 0 1-2 2H4a2 2 0 0 1-2-2V4a2 2 0 0 1 2-2h92m0-2H4a4 4 0 0 0-4 4v52a4 4 0 0 0 4 4h92a4 4 0 0 0 4-4V4a4 4 0 0 0-4-4z"/></g></g><path class="cls-mastercard-3" d="M17 2.24h66.09v54.21H17z"/><path d="M33.37 49.63v-2.7a1.6 1.6 0 0 0-1.69-1.71 1.67 1.67 0 0 0-1.51.77 1.58 1.58 0 0 0-1.42-.77 1.42 1.42 0 0 0-1.26.64v-.53h-.94v4.3h.95v-2.39a1 1 0 0 1 1.05-1.14c.62 0 .94.41.94 1.13v2.39h.95v-2.38a1 1 0 0 1 1.05-1.14c.64 0 .95.41.95 1.13v2.39zm14-4.3h-1.54V44h-.95v1.31H44v.86h.87v2c0 1 .39 1.59 1.49 1.59a2.2 2.2 0 0 0 1.17-.33l-.27-.8a1.73 1.73 0 0 1-.83.24c-.47 0-.62-.29-.62-.72v-1.97h1.53zm8-.11a1.27 1.27 0 0 0-1.13.63v-.52h-.93v4.3h.94v-2.41c0-.71.31-1.11.92-1.11a1.53 1.53 0 0 1 .59.11l.29-.88a2 2 0 0 0-.67-.12zm-12.07.45a3.22 3.22 0 0 0-1.76-.45c-1.09 0-1.79.52-1.79 1.38 0 .7.52 1.13 1.49 1.27l.44.06c.51.07.76.21.76.45s-.34.52-1 .52a2.29 2.29 0 0 1-1.44-.45l-.44.73a3.1 3.1 0 0 0 1.86.56c1.24 0 2-.59 2-1.4s-.57-1.15-1.5-1.29l-.49-.05c-.41-.05-.73-.13-.73-.42s.31-.5.82-.5a2.77 2.77 0 0 1 1.34.37zm25.08-.45a1.27 1.27 0 0 0-1.13.63v-.52h-.93v4.3h.94v-2.41c0-.71.31-1.11.92-1.11a1.53 1.53 0 0 1 .59.11l.29-.88a2 2 0 0 0-.67-.12zm-12.09 2.26a2.17 2.17 0 0 0 2.3 2.26 2.25 2.25 0 0 0 1.55-.51l-.45-.76a1.89 1.89 0 0 1-1.13.39 1.38 1.38 0 0 1 0-2.75 1.89 1.89 0 0 1 1.13.39l.45-.76a2.25 2.25 0 0 0-1.55-.51 2.17 2.17 0 0 0-2.3 2.26zm8.77 0v-2.16h-.94v.52a1.63 1.63 0 0 0-1.36-.63 2.26 2.26 0 0 0 0 4.52 1.63 1.63 0 0 0 1.36-.63v.52h.94zm-3.48 0a1.3 1.3 0 1 1 1.31 1.38 1.29 1.29 0 0 1-1.31-1.38zm-11.3-2.26a2.26 2.26 0 0 0 .06 4.52 2.62 2.62 0 0 0 1.76-.6l-.46-.69a2 2 0 0 1-1.25.45 1.2 1.2 0 0 1-1.29-1.05h3.2v-.36a2.06 2.06 0 0 0-2-2.26zm0 .84a1.07 1.07 0 0 1 1.09 1h-2.26a1.11 1.11 0 0 1 1.14-1zm23.49 1.42V43.6h-.97v2.25a1.63 1.63 0 0 0-1.36-.63 2.26 2.26 0 0 0 0 4.52 1.63 1.63 0 0 0 1.36-.63v.52h.94zm-3.48 0a1.3 1.3 0 1 1 1.31 1.38 1.29 1.29 0 0 1-1.31-1.38zm-31.62 0v-2.16h-.94v.52a1.63 1.63 0 0 0-1.36-.63 2.26 2.26 0 0 0 0 4.52 1.63 1.63 0 0 0 1.36-.63v.52h.94zm-3.48 0a1.3 1.3 0 1 1 1.31 1.38 1.29 1.29 0 0 1-1.34-1.38zM75.3 49a.43.43 0 0 1 .17 0 .44.44 0 0 1 .14.09.43.43 0 0 1 .09.14.42.42 0 0 1 0 .33.43.43 0 0 1-.09.14.45.45 0 0 1-.14.09.42.42 0 0 1-.17 0 .44.44 0 0 1-.4-.26.42.42 0 0 1 0-.33.43.43 0 0 1 .09-.14.43.43 0 0 1 .14-.09.44.44 0 0 1 .17.03zm0 .76h.13l.1-.07a.34.34 0 0 0 0-.47l-.1-.07h-.26a.33.33 0 0 0-.11.07.34.34 0 0 0 0 .47l.11.07zm0-.53a.18.18 0 0 1 .12 0 .11.11 0 0 1 0 .09.11.11 0 0 1 0 .08.16.16 0 0 1-.09 0l.13.15h-.1l-.12-.15v.15h-.08v-.4zm-.1.07v.11h.15-.15z"/><g><path class="cls-mastercard-4" d="M42.96 12.53h14.18v25.48H42.96z"/><path class="cls-mastercard-5" d="M43.86 25.27A16.18 16.18 0 0 1 50 12.53 16.21 16.21 0 1 0 50 38a16.18 16.18 0 0 1-6.14-12.73z"/><path class="cls-mastercard-6" d="M76.27 25.27A16.21 16.21 0 0 1 50 38a16.21 16.21 0 0 0 0-25.48 16.21 16.21 0 0 1 26.27 12.75zm-1.55 10v-.52h.21v-.11h-.53v.11h.21v.52zm1 0v-.63h-.12l-.19.43-.19-.43h-.16v.63h.12v-.47l.18.41h.12l.18-.41v.48z"/></g></svg>
