<svg xmlns="http://www.w3.org/2000/svg" version="1.1" id="Layer_1" x="0" y="0" viewBox="0 0 56 56" xml:space="preserve"><g id="_x38_40-stopwatch-2_x40_2x.png" transform="translate(2)"><g id="g4221"><path d="M26 12a1 1 0 1 0 0-2 1 1 0 1 0 0 2zM7 29a1 1 0 1 0 0 2 1 1 0 1 0 0-2zm2.046 9.635a.999.999 0 1 0 1.365.365.997.997 0 0 0-1.365-.365zM35 14.412a1 1 0 1 0 1-1.732 1 1 0 0 0-1 1.732zm-24.954 5.222a1 1 0 1 0-1 1.73 1 1 0 0 0 1-1.73zM29 4.187V2h1a1 1 0 1 0 0-2h-8a1 1 0 1 0 0 2h1v2.187A25.844 25.844 0 0 0 9.872 9.63l-1.06-1.06a2 2 0 0 0-2.828 0L4.57 9.984a2 2 0 0 0 0 2.828l1.06 1.061C2.114 18.307 0 23.902 0 30c0 14.359 11.641 26 26 26s26-11.641 26-26C52 16.657 41.944 5.676 29 4.187zM25 2h2v2.051C26.666 4.038 26.338 4 26 4c-.338 0-.665.038-1 .051V2zM7.398 9.984l.958.958c-.49.453-.961.924-1.415 1.414l-.957-.958 1.414-1.414zM26 54C12.745 54 2 43.255 2 30S12.745 6 26 6s24 10.745 24 24-10.745 24-24 24zm11.313-36.728l-9.294 9.294A3.953 3.953 0 0 0 26 26a4 4 0 1 0 4 4c0-.74-.215-1.425-.565-2.02l9.293-9.294a.999.999 0 0 0 0-1.414 1.002 1.002 0 0 0-1.415 0zM26 32a2 2 0 1 1 .001-4.001A2 2 0 0 1 26 32zm-9 13.589a1 1 0 1 0-1 1.732 1 1 0 0 0 1-1.732zm24.954-25.955a1 1 0 1 0 1 1.73 1 1 0 0 0-1-1.73zm1 19.001a.999.999 0 1 0-1 1.729.999.999 0 0 0 1-1.729zM45 29a1 1 0 1 0 0 2 1 1 0 1 0 0-2zM16 12.68a1 1 0 1 0 1 1.73 1 1 0 0 0-1-1.73zm19 32.909a.998.998 0 1 0 1 1.731 1 1 0 1 0-1-1.731zM26 48a1 1 0 1 0 0 2 1 1 0 1 0 0-2z" id="path4223"/></g></g></svg>