<svg xmlns="http://www.w3.org/2000/svg" viewBox="0 0 63.1 63.1"><path d="M60.16 12.6c-.7-.5-1.5-.8-2.4-.8-1.3 0-2.8.6-4.2 1.5-1.1-.2-2.8-.3-4.5-.3-1.7 0-3.3.1-4.5.3-1.3-.9-2.8-1.5-4.2-1.5-.9 0-1.8.3-2.4.8-2.1 1.7-3.2 4.1-2.8 6.5.2 1.4.9 2.4 1.8 2.7.5.2 1.1.3 1.5.3l-.3.2c-.4.2-.9.4-1.3.5L3.66 0l-1.1 1.7 31.4 21.6c-.6 0-1.3.1-2.2.1-7.4.5-22.8 1.5-27.2-5.7l-.3-.4h-.5c-.9-.1-2.8.4-3.5 2.4-.4 1-.2 2.3.5 3.5 1 1.8 3.6 4.3 10.1 6.2-.3 3.4-1.4 16.3-3.2 21.7-1.4 4.1-1.5 7.6-.1 9.7.7 1.1 1.8 1.8 3 2 .3 0 .9 0 1.4-.5 2.2-1.7 4.6-9.9 6-15.2 1.7 8.1 4 15.7 7.8 15.7 1 0 1.7-.4 2.3-1.3 2.2-3.4-.4-13.2-1.5-16.9 1.3.2 3.3.8 4.8 1.1 2.1.5 4 1 5.2 1.2-.1.7-.6 2.3-.9 3.5-1.1 3.6-2.5 8-1.1 10.6.5.9 1.3 1.5 2.3 1.8 1.3.4 2.6.1 3.6-.7 2.4-1.8 3.5-6.4 3.9-9.8 2.3 5.7 5 10.8 8.3 10.8.3 0 .6 0 .8-.1 1-.2 1.7-.9 2.1-1.8 1.8-4.5-4.4-15.9-5.8-18.3.2-.6.7-1.6 1.2-2.9 3.1-.3 4.5-1.4 5.1-2.5 1.9-.7 3.4-2.9 3.4-5.2l-.6-10.3c.7.2 1.5.2 2.3-.1.9-.3 1.6-1.4 1.8-2.7.4-2.4-.7-4.9-2.8-6.6zm-6.4 47.7c-.2.4-.4.6-.7.7-2 .5-4.7-3.5-7.7-11.8-.6-1.6-.8-2.2-1.5-2.2h-.3l-.8.2v.8c0 1.5-.6 10.3-3.5 12.5-.6.4-1.2.5-1.9.3-.5-.1-.8-.4-1.1-.8-1-1.8.3-6 1.3-9 1-3.1 1.4-4.5.8-5.4-.2-.4-.6-.6-1-.6-.9-.1-3.2-.6-5.4-1.2-6.1-1.5-6.8-1.6-7.4-.9-.3.3-.3.8-.2 1.1.7 1.6 3.9 13.7 2.1 16.4-.2.3-.4.3-.6.3-2.9 0-5.7-12.9-6.4-16.8-.4-2-.5-2.4-1.4-2.4l-1 .2-.1.8c-.2 1.9-4.3 17.2-6.3 18.3-.6-.1-1.1-.5-1.5-1.1-1-1.6-.9-4.5.3-8 2.2-6.4 3.3-22.3 3.4-23l.1-.8-.8-.2c-6.8-1.8-9-4.2-9.7-5.4-.6-1.1-.5-1.8-.4-2.1.2-.6.7-.9 1-1 5.4 7.7 20.5 6.7 28.7 6.1 1.5-.1 2.7-.2 3.5-.2.4 0 .8-.1 1.2-.1l2.4 1.7-.4 5.6c0 2.2 1.4 4.3 3.4 5 0 .1.1.2.1.2s0 .1.1.1l.1.1.1.1.1.1.1.1.1.1.1.1.1.1s.1.1.2.1.1.1.2.1.1.1.2.1.1.1.2.1.1.1.2.1.1.1.2.1.1.1.2.1.1.1.2.1.2.1.2.1c.1 0 .2.1.2.1.1 0 .2 0 .3.1.1 0 .2 0 .3.1.1 0 .2 0 .3.1.1 0 .2 0 .3.1.1 0 .2 0 .3.1h2.4c-.6 1.5-1.1 2.5-1.1 2.5l-.2.5.3.4c2.4 3.7 7.4 14 6.1 17.1zm-14.9-36.1c.1 0 .2-.1.3-.1v.3l-.3-.2zm10.2 12.5c-.9 0-1.7-.1-2.3-.2.6-.4 1.1-.7 2.1-.8l.2.1.2-.1c1.1 0 1.5.4 2.1.8-.6.2-1.4.2-2.3.2zm12-17.9c-.1.8-.4 1.1-.5 1.2-.3.1-.6.2-.8.2-.3 0-.7-.1-1.3-.7l-2-2.2 1 15c0 1.5-1.1 3-2.3 3.3l-.4.1h-.7c-.7 0-1-.3-1.5-.6-.6-.4-1.2-.8-2.4-1 2.2-.3 3.9-1.7 3.9-3.4 0-1.9-2.2-3.5-5-3.5s-5 1.6-5 3.5c0 1.7 1.7 3.1 3.9 3.4-1.1.2-1.8.6-2.4 1-.5.3-.9.6-1.5.6h-.7l-.4-.1c-1.3-.3-2.3-1.7-2.3-3.1l.8-12.1.2-3.1-1.9 2.2c-.5.6-1 .7-1.3.7-.2 0-.5-.1-.8-.2-.1 0-.4-.4-.5-1.2-.1-.6-.2-2.8 2.1-4.6.3-.2.7-.4 1.2-.4 1 0 2.3.5 3.3 1.3l.4.3.5-.1c1-.2 2.7-.3 4.5-.3 1.8 0 3.5.1 4.5.3l.6.1.4-.3c1-.8 2.3-1.3 3.3-1.3.5 0 .9.1 1.2.4 2.1 1.8 2 4 1.9 4.6zm-14.4 2.3c-.7 0-1.2.5-1.2 1.2s.5 1.2 1.2 1.2 1.2-.5 1.2-1.2c0-.6-.5-1.2-1.2-1.2zm4.8 0c-.7 0-1.2.5-1.2 1.2s.5 1.2 1.2 1.2 1.2-.5 1.2-1.2c-.1-.6-.6-1.2-1.2-1.2z" clip-rule="evenodd" fill-rule="evenodd"/></svg>