<svg xmlns="http://www.w3.org/2000/svg" version="1.1" id="Layer_1" x="0" y="0" viewBox="0 0 62.500001 62.500001" xml:space="preserve"><path id="path6" d="M14.608 10.447a4.152 4.152 0 0 1 4.16 4.16 4.152 4.152 0 0 1-4.16 4.161 4.152 4.152 0 0 1-4.16-4.16 4.152 4.152 0 0 1 4.16-4.16zm4.755-9.51c10.183 0 18.425 8.243 18.425 18.426 0 2.23-.417 4.354-1.145 6.336l-.178.487.102.054c-.008.064-.042.113-.042.18 0 .304.218.494.353.74l-.172.17 4.709 4.721 12.66 12.66 7.488 7.486v9.366h-8.321v-5.35c0-.977-.805-1.783-1.783-1.783h-5.35v-5.349c0-.978-.805-1.783-1.783-1.783h-6.394l-2.162-2.162-3.745-3.742-4.573-4.563-.195.098c-.266-.169-.492-.404-.836-.404-.076 0-.13.039-.202.049l-.056-.1-.476.174a18.33 18.33 0 0 1-6.324 1.14C9.179 37.788.937 29.546.937 19.363S9.18.937 19.363.937z" stroke="#000" stroke-opacity="1" fill="none" stroke-width="1.875" stroke-miterlimit="4" stroke-dasharray="none" stroke-linejoin="round" stroke-linecap="round"/></svg>