<svg version="1.1" id="Layer_1" xmlns="http://www.w3.org/2000/svg" x="0" y="0" viewBox="0 0 47.996 56.01" xml:space="preserve"><g id="_x38_47-moon_x40_2x.png"><g><path d="M47.152 47.736c-15.501 0-28.065-12.543-28.065-28.016 0-7.692 3.107-14.658 8.135-19.721C12.112.445 0 12.803 0 27.993 0 43.467 12.564 56.01 28.065 56.01c7.794 0 14.845-3.175 19.931-8.295-.282.009-.561.021-.844.021zm-19.087 6.268c-14.367 0-26.057-11.669-26.057-26.011A25.83 25.83 0 0 1 9.383 9.866a25.94 25.94 0 0 1 13.059-7.269c-3.486 4.992-5.365 10.918-5.365 17.123 0 15.089 11.209 27.613 25.752 29.712-4.31 2.972-9.411 4.572-14.764 4.572z"/></g></g></svg>