<svg xmlns="http://www.w3.org/2000/svg" viewBox="0 0 20 18"><path fill-rule="nonzero" d="M18.375 1.594A5.577 5.577 0 0 0 14.446 0a5.58 5.58 0 0 0-3.929 1.594L10 2.1l-.517-.506A5.579 5.579 0 0 0 5.553 0C4.07 0 2.675.566 1.626 1.594a5.37 5.37 0 0 0 0 7.698l7.763 7.605a.852.852 0 0 0 .45.23.877.877 0 0 0 .774-.23l7.763-7.605a5.37 5.37 0 0 0 0-7.698zm-1.214 6.509L10 15.118 2.839 8.103a3.712 3.712 0 0 1 0-5.32 3.856 3.856 0 0 1 2.715-1.101c1.025 0 1.99.39 2.715 1.1l1.124 1.103a.897.897 0 0 0 1.214 0l1.124-1.102a3.855 3.855 0 0 1 2.715-1.101c1.026 0 1.99.39 2.715 1.1a3.712 3.712 0 0 1 0 5.32z" fill="#dc5858"/></svg>