<svg xmlns="http://www.w3.org/2000/svg" viewBox="0 0 373 373"><path fill="#FAB660" d="M351.1 169.7c6.8-6.6 9.2-16.3 6.2-25.3-2.9-9-10.6-15.5-19.9-16.8l-83.3-12.1c-3.6-.5-6.6-2.8-8.2-6L208.6 34c-4.1-8.5-12.7-13.8-22.2-13.8-9.4 0-17.9 5.3-22.1 13.8l-37.2 75.5c-1.6 3.2-4.7 5.5-8.2 6l-83.4 12.1c-9.4 1.4-17 7.8-19.9 16.8-2.9 9-.5 18.7 6.2 25.3l60.3 58.8c2.6 2.5 3.7 6.1 3.1 9.6l-14.2 83c-1.2 7.3.7 14.4 5.4 20 7.4 8.7 20.2 11.4 30.4 6l74.5-39.2c3.2-1.6 7-1.6 10.2 0l74.5 39.2c3.6 1.9 7.5 2.9 11.5 2.9 13.7 0 24.7-11.2 24.7-24.8 0-1.4-.1-2.7-.4-4.1l-14.2-83c-.6-3.5.6-7.1 3.1-9.6l60.4-58.8z"/></svg>