<svg xmlns="http://www.w3.org/2000/svg" id="american-express"  viewBox="0 0 100 60"><defs><radialGradient id="a" cx="34.74" cy="46.4" r="42.53" gradientTransform="matrix(1 0 0 -1 0 62)" gradientUnits="userSpaceOnUse"><stop offset="0" stop-color="#9dd5f6"/><stop offset=".07" stop-color="#98d3f5"/><stop offset=".16" stop-color="#89cef3"/><stop offset=".25" stop-color="#70c6ef"/><stop offset=".35" stop-color="#4ebbea"/><stop offset=".45" stop-color="#23ade3"/><stop offset=".5" stop-color="#0da6e0"/><stop offset="1" stop-color="#2e77bc"/></radialGradient></defs><g><rect x="1" y="1" width="98" height="58" rx="3" ry="3" fill="#fff"/><path d="M96 2a2 2 0 0 1 2 2v52a2 2 0 0 1-2 2H4a2 2 0 0 1-2-2V4a2 2 0 0 1 2-2h92m0-2H4a4 4 0 0 0-4 4v52a4 4 0 0 0 4 4h92a4 4 0 0 0 4-4V4a4 4 0 0 0-4-4z" fill="#e9e9e9"/></g><g><path d="M72.07 7.66H26.75v45.48h45.32v-15a1.73 1.73 0 0 0 .26-1 1.55 1.55 0 0 0-.26-1" fill="url(#a)"/><path d="M30.83 27.34L30 25.21l-.87 2.13m21-.85a1.15 1.15 0 0 1-.63.11h-1.64v-1.18h1.57a1.38 1.38 0 0 1 .6.09.49.49 0 0 1 .27.47.56.56 0 0 1-.3.51zm11 .85l-.88-2.13-.88 2.13zm-20.63 2.3h-1.31v-4.18l-1.85 4.18h-1.12l-1.85-4.18v4.18h-2.59l-.49-1.19h-2.65l-.5 1.19h-1.38L29 24.31h1.89l2.17 5v-5h2.08l1.67 3.61 1.53-3.61h2.16v5.33zm5.2 0h-4.25v-5.33h4.25v1.11h-3v1h2.91v1.09h-2.89v1.06h3zm6-3.9a1.49 1.49 0 0 1-.89 1.42 1.68 1.68 0 0 1 .63.45 1.54 1.54 0 0 1 .21 1v1.05h-1.29V29a1.58 1.58 0 0 0-.2-1 1.24 1.24 0 0 0-.93-.23h-1.37v1.94h-1.27v-5.4h2.93a3 3 0 0 1 1.54.25 1.25 1.25 0 0 1 .64 1.18zm2 3.9h-1.3v-5.33h1.3zm15.08 0H67l-2.42-4v4H62l-.5-1.19h-2.64l-.48 1.19h-1.49a2.66 2.66 0 0 1-1.84-.59 2.7 2.7 0 0 1-.68-2 2.81 2.81 0 0 1 .68-2.08 2.57 2.57 0 0 1 1.95-.66h1.23v1.14H57a1.26 1.26 0 0 0-1 .31 1.81 1.81 0 0 0-.33 1.24 1.83 1.83 0 0 0 .33 1.22 1.21 1.21 0 0 0 .88.28h.58l1.79-4.19h1.91l2.16 5v-5h1.94L67.52 28v-3.69h1.3v5.33zm-42.07 1h2.17l.49-1.18h1.1l.53 1.22h4.28v-.9l.39.91h2.22l.38-.93v.92h10.64v-1.94h.2c.15 0 .19 0 .19.26v1.68h5.5v-.45a4.38 4.38 0 0 0 2.05.45h2.31l.5-1.18h1.1l.48 1.18h4.46v-1.12l.68 1.12H70v-7.43h-3.58v.88l-.5-.88h-3.63v.88l-.45-.88h-4.91a4.44 4.44 0 0 0-2.13.43v-.43h-3.38v.43a2.1 2.1 0 0 0-1.42-.43H37.62l-.83 1.92-.86-1.92H32v.88l-.43-.88h-3.28l-1.54 3.53v3.9zm45.36 3.97h-2.33a.85.85 0 0 0-.51.1.4.4 0 0 0-.19.38.42.42 0 0 0 .28.4 1.36 1.36 0 0 0 .49.06h.69A2.05 2.05 0 0 1 72 36a.74.74 0 0 1 .12.13m0 2a2 2 0 0 1-1.73.68h-2.51v-1.14h2.45a.71.71 0 0 0 .51-.14.45.45 0 0 0 .15-.34.46.46 0 0 0-.15-.36.68.68 0 0 0-.45-.11c-1.2 0-2.69 0-2.69-1.65 0-.78.49-1.59 1.83-1.59h2.53v-1.06h-2.35a2.72 2.72 0 0 0-1.6.43v-.43h-3.48a2.48 2.48 0 0 0-1.53.43v-.43h-6.22v.43a3.39 3.39 0 0 0-1.72-.43h-4.11v.43a2.88 2.88 0 0 0-1.79-.43h-4.6l-1 1.14-1-1.14h-6.9v7.44h6.74l1.08-1.16 1 1.16h4.15v-1.75h.41a4.31 4.31 0 0 0 1.78-.26v2h3.42v-1.93h.17c.21 0 .23 0 .23.22v1.72h10.4a3 3 0 0 0 1.74-.48v.48h3.3a4.43 4.43 0 0 0 1.87-.35v-1.38zM67 36a1.47 1.47 0 0 1 .38 1.13c0 1.14-.71 1.68-2 1.68h-2.5v-1.14h2.47a.72.72 0 0 0 .52-.14.45.45 0 0 0 .15-.34.46.46 0 0 0-.15-.36.68.68 0 0 0-.45-.11c-1.2 0-2.69 0-2.69-1.65 0-.78.49-1.59 1.82-1.59h2.56v1.13h-2.34a.85.85 0 0 0-.51.1.4.4 0 0 0-.19.38.42.42 0 0 0 .28.4 1.36 1.36 0 0 0 .49.06h.69A2.05 2.05 0 0 1 67 36zm-11.49-.33a1.23 1.23 0 0 1-.63.11h-1.57v-1.2h1.57a1.26 1.26 0 0 1 .61.1.49.49 0 0 1 .26.48.56.56 0 0 1-.26.51zm.77.66a1.41 1.41 0 0 1 .62.45 1.51 1.51 0 0 1 .21 1v1.06h-1.29v-.67a1.55 1.55 0 0 0-.21-1 1.24 1.24 0 0 0-.93-.24h-1.37v2H52v-5.45h3a3.22 3.22 0 0 1 1.54.25 1.25 1.25 0 0 1 .65 1.18 1.49 1.49 0 0 1-.93 1.42zm1.61-2.85h4.25v1.1h-3v1h2.91v1.09h-2.91v1.03h3v1.11h-4.27zm-8.6 2.46h-1.66v-1.36h1.66c.46 0 .78.19.78.66s-.31.7-.8.7zm-2.91 2.38l-2-2.17 2-2.1zm-5-.62h-3.2v-1.06H41v-1.09h-2.82v-1h3.19l1.39 1.55zm10.13-2.46c0 1.48-1.11 1.78-2.22 1.78h-1.66v1.79h-2.48L43.58 37 42 38.81h-5v-5.33h5l1.57 1.75 1.62-1.75h4.07c1.04 0 2.18.28 2.18 1.76z" fill="#fff"/></g></svg>
