<svg id="visa" version="1.1" xmlns="http://www.w3.org/2000/svg" x="0" y="0" width="100" height="60" viewBox="0 0 100 60" xml:space="preserve"><g id="BG__x2B__stroke"><path d="M4 1h92c1.7 0 3 1.3 3 3v52c0 1.7-1.3 3-3 3H4c-1.7 0-3-1.3-3-3V4c0-1.7 1.3-3 3-3z" fill="#fff"/><g><path d="M96 2c1.1 0 2 .9 2 2v52c0 1.1-.9 2-2 2H4c-1.1 0-2-.9-2-2V4c0-1.1.9-2 2-2h92m0-2H4C1.8 0 0 1.8 0 4v52c0 2.2 1.8 4 4 4h92c2.2 0 4-1.8 4-4V4c0-2.2-1.8-4-4-4z" fill="#e9e9e9"/></g></g><g id="visa_new"><g><g><path fill="#00589f" d="M39.6 38.8L42.1 24h4.1l-2.5 14.8zM58.3 24.4c-.8-.3-2.1-.6-3.6-.6-4 0-6.8 2-6.8 4.9 0 2.1 2 3.3 3.5 4 1.6.7 2.1 1.2 2.1 1.8 0 1-1.3 1.5-2.4 1.5-1.6 0-2.5-.2-3.8-.8l-.5-.2-.6 3.3c.9.4 2.7.8 4.5.8 4.3 0 7-2 7.1-5.1 0-1.7-1.1-3-3.4-4-1.4-.7-2.3-1.1-2.3-1.8 0-.6.7-1.3 2.3-1.3 1.3 0 2.3.3 3 .6l.4.2.5-3.3M68.7 24h-3.1c-1 0-1.7.3-2.1 1.2l-6 13.6h4.3s.7-1.8.9-2.2h5.2c.1.5.5 2.2.5 2.2H72L68.7 24m-5 9.6c.3-.9 1.6-4.2 1.6-4.2s.3-.9.5-1.4l.3 1.3s.8 3.5.9 4.3h-3.3zM36.2 24l-4 10.1-.4-2.1c-.7-2.4-3-4.9-5.6-6.2l3.6 13h4.3L40.5 24h-4.3"/><path d="M28.6 24H22v.3c5.1 1.2 8.4 4.2 9.8 7.8l-1.4-6.8c-.2-1-.9-1.3-1.8-1.3" fill="#f9a51a"/></g></g></g></svg>
